<?xml version="1.0" encoding="utf-8"?>
<!-- Generator: Adobe Illustrator 26.5.0, SVG Export Plug-In . SVG Version: 6.00 Build 0)  -->
<svg version="1.1" id="Ebene_1" xmlns="http://www.w3.org/2000/svg" xmlns:xlink="http://www.w3.org/1999/xlink" x="0px" y="0px"
	 viewBox="0 0 1080 1080" style="enable-background:new 0 0 1080 1080;" xml:space="preserve">
<style type="text/css">
	.st0{fill:#FFFFFF;}
</style>
<g>
	<path class="st0" d="M583.7,771H496l-14.5-41.5l-34.2-14.3l-39.5,19.3l-8-7.9c-23.1-22.9-23.1-22.9-46.1-46.1l-7.9-8.4l18.9-39.4
		l-14.3-34.6L309,583.7v-87.2l41.5-14.8l5.1-12.4c1.4-3.3,2.7-6.5,4.1-9.8c1.6-3.8,3.2-7.8,5.1-12.2l-18.9-39.8l7.9-8
		c22.9-22.9,22.9-22.9,46.1-45.8l8-7.9l39.5,18.9l22.7-9.3l11.9-5l14.5-41.5h87.2l14.7,41.5l11.9,4.9l22.5,9.4l39.5-18.7l8,7.9
		c23.1,22.9,23.1,22.9,46.1,45.8l7.9,8l-18.9,39.9c1.4,3.4,2.7,6.5,4,9.6c1.8,4.3,3.4,8.4,5.2,12.4l5.1,12.3l41.5,14.5v87.5
		l-41.5,14.5l-5,12.1l-9.3,22.2l19,39l-7.8,8.4c-23,23.2-23,23.2-46.2,46.1l-7.9,7.9l-39.7-18.9l-22.6,9.3l-12,5L583.7,771z
		 M499.5,766h80.6l14-40.2l14.1-5.9l24.7-10.1l38.5,18.4l5.4-5.4c23.2-22.9,23.2-22.9,46.1-46l5.4-5.8l-18.5-38l16-38.5l40.2-14.1
		V500l-40.2-14.1l-5.9-14.3c-1.8-4-3.5-8.1-5.2-12.5c-1.4-3.3-2.8-6.8-4.4-10.6l-0.4-1l18.4-38.8l-5.4-5.5
		c-22.9-22.9-22.9-22.9-46-45.7l-5.5-5.4l-38.3,18.1l-38.5-16L580.1,314H500l-14.1,40.2l-14,5.8l-24.8,10.2l-38.3-18.4l-5.5,5.4
		c-23.1,22.8-23.1,22.8-46,45.8l-5.4,5.5l18.4,38.6l-0.4,1c-2.1,4.9-3.8,9.1-5.6,13.2c-1.4,3.3-2.7,6.5-4.1,9.8l-5.9,14.4L314,499.9
		v80.2l40.2,14l5.8,14.1l10.2,24.7l-18.4,38.3l5.5,5.9c22.9,23.1,22.9,23.1,46,46l5.5,5.4l38.3-18.7l38.3,16L499.5,766z M540,676.1
		L540,676.1c-36.4,0-70.6-14.2-96.3-39.9c-25.7-25.7-39.9-59.9-39.9-96.3c0-36.4,14.2-70.6,39.9-96.3c25.7-25.7,59.9-39.9,96.3-39.9
		c36.4,0,70.6,14.2,96.3,40c25.7,25.7,39.8,59.9,39.8,96.3c-0.1,36.4-14.3,70.5-40,96.2C610.5,661.9,576.3,676.1,540,676.1z
		 M540,408.7c-35,0-68,13.6-92.8,38.4c-24.8,24.8-38.4,57.7-38.5,92.8c0,35,13.6,68,38.4,92.8c24.8,24.8,57.7,38.4,92.8,38.4
		c35,0,67.9-13.7,92.7-38.4c24.8-24.7,38.4-57.7,38.5-92.7c0-35.1-13.6-68-38.4-92.8C608.1,422.5,575.1,408.8,540,408.7z
		 M514.2,613.1L514.2,613.1c-3.3-0.1-6.2-1.7-8-4.3c-1.8-2.6-2.1-6-0.9-9l51.7-127c2.2-4.6,7.6-6.7,12.3-4.7c4.7,1.9,7.2,7.2,5.5,12
		l-0.1,0.1L523.1,607C521.6,610.7,518.1,613.1,514.2,613.1z M561.5,474.9l-51.6,126.7c-0.6,1.4-0.4,3.1,0.4,4.3
		c0.9,1.3,2.3,2.1,3.8,2.1c1.9,0,3.6-1.2,4.3-2.9l51.6-126.8c0.7-2.3-0.4-4.8-2.7-5.7C565.1,471.7,562.6,472.7,561.5,474.9z
		 M585,582.7v-1.3c-0.6,0.1-1.1,0.2-1.7,0.2c-3,0-6-1.4-7.8-3.9c-1.5-2-2.2-4.5-1.8-7.1l0-0.1c0.4-2.5,1.8-4.8,3.8-6.2l33-24.2
		l-33-24.3c-2.1-1.5-3.4-3.8-3.8-6.3c-0.4-2.6,0.2-5.1,1.8-7.2c3.2-4.3,9.2-5.2,13.5-2l43.3,32c2.5,1.8,4,4.8,3.9,7.8
		c0,3-1.5,5.9-3.9,7.7L585,582.7z M583.2,576.6l0,0.5L583.2,576.6c1,0,2-0.3,2.8-0.9l1.1-0.8l42.1-31.2c1.2-0.9,1.9-2.3,1.9-3.7
		c0-1.5-0.7-2.9-1.9-3.7l-43.3-32c-2.1-1.5-5-1.1-6.5,1c-0.7,1-1,2.2-0.9,3.4c0.2,1.2,0.8,2.3,1.8,3.1l38.4,28.3l-38.4,28.2
		c-1,0.7-1.6,1.8-1.9,3c-0.1,1.3,0.2,2.5,0.9,3.4C580.4,575.9,581.8,576.6,583.2,576.6C583.2,576.6,583.2,576.6,583.2,576.6z
		 M496.8,581.6c0,0-0.1,0-0.1,0c-2,0-4-0.6-5.6-1.8l-43.3-32c-2.5-1.8-3.9-4.7-3.9-7.7c0-3.1,1.5-6,3.9-7.8l43.2-32
		c2-1.5,4.6-2.1,7.2-1.8c2.6,0.4,4.8,1.8,6.4,3.8c1.5,2.1,2.2,4.6,1.8,7.1c-0.4,2.5-1.7,4.8-3.8,6.3l-33,24.3l33,24.2
		c2.1,1.5,3.4,3.8,3.8,6.3c0.3,2.7-0.3,5.2-1.8,7.2C502.7,580.1,499.8,581.6,496.8,581.6z M496.8,503.3c-1,0-2,0.3-2.9,0.9l-43.2,32
		c-1.2,0.9-1.9,2.3-1.9,3.8c0,1.4,0.7,2.8,1.9,3.7l43.3,32c0.8,0.6,1.8,0.9,2.7,0.9h0c1.4,0,2.8-0.7,3.8-1.9c0.7-0.9,1-2.2,0.9-3.5
		c-0.2-1.2-0.8-2.2-1.8-3L461.1,540l38.4-28.3c1-0.7,1.6-1.8,1.8-3c0.2-1.2-0.1-2.4-0.9-3.4c-0.8-1-1.8-1.7-3-1.9
		C497.3,503.3,497.1,503.3,496.8,503.3z"/>
</g>
</svg>
