<?xml version="1.0" encoding="utf-8"?>
<!-- Generator: Adobe Illustrator 26.5.0, SVG Export Plug-In . SVG Version: 6.00 Build 0)  -->
<svg version="1.1" id="Ebene_1" xmlns="http://www.w3.org/2000/svg" xmlns:xlink="http://www.w3.org/1999/xlink" x="0px" y="0px"
	 viewBox="0 0 1080 1080" style="enable-background:new 0 0 1080 1080;" xml:space="preserve">
<style type="text/css">
	.st0{fill:#FFFFFF;}
</style>
<path class="st0" d="M630.7,304.4c13.7,0,24.8,11.2,24.8,25.1v160.3h-5V374.5v-5h-5H404.7h-5v5v330.7v5h5h250.8v40.1
	c0,13.8-11.1,25.1-24.8,25.1H419.4c-13.7,0-24.8-11.2-24.8-25.1V329.4c0-13.8,11.1-25.1,24.8-25.1H630.7 M399.7,364.5h5h240.8h5v-5
	v-30.1c0-11-8.9-20-19.8-20H419.4c-10.9,0-19.8,9-19.8,20v30.1V364.5 M419.4,770.3h211.2c10.9,0,19.8-9,19.8-20v-30.1v-5h-5H404.7
	h-5v5v30.1C399.7,761.4,408.5,770.3,419.4,770.3 M555.2,334.4c0.2,0,0.3,0,0.5,0l0,0l0,0c0.1,0,0.3,0.1,0.5,0.1
	c0.2,0.1,0.3,0.1,0.4,0.2c0.2,0.1,0.3,0.2,0.4,0.3c0.1,0.1,0.2,0.2,0.3,0.4c0.1,0.1,0.2,0.3,0.2,0.4c0.1,0.1,0.1,0.3,0.1,0.5
	c0,0.2,0.1,0.3,0.1,0.5c0,0.2,0,0.3,0,0.5c0,0.2-0.1,0.4-0.1,0.5c-0.1,0.2-0.2,0.3-0.2,0.5c-0.1,0.1-0.2,0.3-0.3,0.3
	c-0.1,0.1-0.3,0.2-0.4,0.3c-0.1,0.1-0.3,0.2-0.4,0.2c-0.2,0.1-0.3,0.1-0.5,0.1l0,0l0,0c-0.1,0-0.3,0-0.5,0s-0.3,0-0.5,0l0,0l0,0
	c-0.1,0-0.3-0.1-0.5-0.1c-0.1-0.1-0.3-0.1-0.4-0.2c-0.1-0.1-0.3-0.2-0.4-0.3c-0.1-0.1-0.2-0.2-0.3-0.4c-0.1-0.1-0.2-0.3-0.2-0.4
	c-0.1-0.2-0.1-0.3-0.1-0.5l0,0l0,0c0-0.1,0-0.3,0-0.5c0-0.2,0-0.3,0-0.5l0,0l0,0c0-0.1,0.1-0.3,0.1-0.5c0.1-0.1,0.1-0.3,0.2-0.4
	c0.1-0.1,0.2-0.2,0.3-0.3c0.1-0.1,0.2-0.2,0.4-0.3c0.1-0.1,0.3-0.2,0.4-0.2c0.2-0.1,0.3-0.1,0.5-0.1l0,0l0,0
	C554.8,334.4,555,334.4,555.2,334.4 M525.1,334.4c0.2,0,0.3,0,0.5,0l0,0l0,0c0.1,0,0.3,0.1,0.5,0.1c0.2,0.1,0.3,0.1,0.4,0.2
	c0.1,0.1,0.3,0.2,0.4,0.3c0.1,0.1,0.2,0.3,0.3,0.4c0.1,0.1,0.2,0.3,0.2,0.4c0.1,0.1,0.1,0.3,0.1,0.5c0,0.2,0.1,0.3,0.1,0.5
	c0,0.2,0,0.3,0,0.5c0,0.2-0.1,0.4-0.1,0.5c-0.1,0.2-0.2,0.3-0.2,0.4c-0.1,0.2-0.2,0.3-0.3,0.4c-0.1,0.1-0.2,0.2-0.4,0.3
	c-0.1,0.1-0.3,0.2-0.4,0.2c-0.2,0.1-0.3,0.1-0.5,0.1l0,0l0,0c-0.1,0-0.3,0-0.5,0c-0.2,0-0.3,0-0.5,0l0,0l0,0c-0.1,0-0.3-0.1-0.5-0.1
	c-0.1-0.1-0.3-0.1-0.4-0.2c-0.1-0.1-0.3-0.2-0.4-0.3c-0.1-0.1-0.2-0.2-0.3-0.4c-0.1-0.1-0.2-0.3-0.2-0.4c-0.1-0.2-0.1-0.3-0.1-0.5
	l0,0l0,0c0-0.1,0-0.3,0-0.5c0-0.2,0-0.3,0-0.5l0,0l0,0c0-0.1,0.1-0.3,0.1-0.5c0.1-0.1,0.1-0.3,0.2-0.4c0.1-0.1,0.2-0.3,0.3-0.4
	c0.1-0.1,0.2-0.2,0.4-0.3c0.1-0.1,0.3-0.2,0.4-0.2c0.2-0.1,0.3-0.1,0.5-0.1l0,0l0,0C524.7,334.4,524.9,334.4,525.1,334.4 M495,334.4
	c0.2,0,0.3,0,0.5,0l0,0l0,0c0.1,0,0.3,0.1,0.5,0.1c0.1,0.1,0.3,0.1,0.4,0.2c0.1,0.1,0.3,0.2,0.4,0.3c0.1,0.1,0.2,0.3,0.3,0.4
	c0.1,0.1,0.2,0.3,0.2,0.4l0,0l0,0c0.1,0.1,0.1,0.3,0.1,0.4c0,0.2,0,0.3,0,0.5c0,0.2,0,0.3,0,0.5c0,0.2-0.1,0.3-0.1,0.5l0,0l0,0
	c-0.1,0.1-0.1,0.3-0.2,0.4c-0.1,0.2-0.2,0.3-0.3,0.4c-0.1,0.1-0.2,0.2-0.4,0.3c-0.2,0.1-0.3,0.2-0.5,0.2c-0.2,0.1-0.3,0.1-0.4,0.1
	l0,0l0,0c-0.1,0-0.3,0-0.5,0c-0.2,0-0.3,0-0.5,0l0,0l0,0c-0.1,0-0.3-0.1-0.5-0.1c-0.1-0.1-0.3-0.1-0.4-0.2c-0.1-0.1-0.3-0.2-0.4-0.3
	c-0.1-0.1-0.2-0.3-0.3-0.4c-0.1-0.1-0.2-0.3-0.2-0.4l0,0l0,0c-0.1-0.1-0.1-0.3-0.1-0.4c0-0.2,0-0.3,0-0.5c0-0.2,0-0.3,0-0.5
	c0-0.2,0.1-0.3,0.1-0.4l0,0l0,0c0.1-0.1,0.1-0.3,0.2-0.4c0.1-0.1,0.2-0.3,0.3-0.4c0.1-0.1,0.2-0.2,0.4-0.3c0.1-0.1,0.3-0.2,0.4-0.2
	c0.2-0.1,0.3-0.1,0.5-0.1l0,0l0,0C494.6,334.4,494.8,334.4,495,334.4 M585.8,394.6c13.5,0,24.6,11,24.6,24.5v46.2
	c0,13.5-11,24.5-24.6,24.5h-46.2c-13.5,0-24.6-11-24.6-24.5v-46.2c0-13.5,11-24.5,24.6-24.5H585.8 M539.6,484.7h46.2
	c10.8,0,19.5-8.8,19.5-19.5v-46.2c0-10.8-8.8-19.5-19.5-19.5h-46.2c-10.8,0-19.5,8.7-19.5,19.5v46.2
	C520.1,476,528.8,484.7,539.6,484.7 M660.5,514.8c13.8,0,25.1,11.2,25.1,25.1v120.2c0,13.8-11.3,25.1-25.1,25.1H540.1
	c-13.8,0-25.1-11.2-25.1-25.1V539.9c0-13.8,11.3-25.1,25.1-25.1H660.5 M540.1,680.2h120.4c11.1,0,20.1-9,20.1-20V539.9
	c0-11-9-20-20.1-20H540.1c-11.1,0-20,9-20,20v120.2C520.1,671.2,529.1,680.2,540.1,680.2 M473.8,514.8c8.9,0,16.1,7.2,16.1,16.1v33
	c0,8.9-7.2,16.1-16.1,16.1h-33c-8.9,0-16.1-7.2-16.1-16.1v-33c0-8.9,7.2-16.1,16.1-16.1H473.8 M440.8,574.9h33
	c6.1,0,11.1-5,11.1-11.1v-33c0-6.1-5-11.1-11.1-11.1h-33c-6.1,0-11.1,5-11.1,11.1v33C429.8,570,434.7,574.9,440.8,574.9 M653,567.4
	c1,0,2,0.6,2.4,1.6c0.3,0.8,0.1,1.6,0,1.9c-0.3,0.6-0.7,1.1-1.4,1.4c-13.4,5.5-25.9,14.6-35.3,22c-20.8,16.4-37.7,36.3-38.6,37.4
	l0,0c-0.5,0.6-1.2,0.9-2,0.9c-0.1,0-0.1,0-0.3,0c-0.8-0.1-1.6-0.6-2-1.3c-10.5-19.9-16.3-28.4-29.8-39.7c-0.7-0.6-0.9-1.3-0.9-1.7
	c0-0.4,0-1.1,0.6-1.8c0.5-0.6,1.2-0.9,1.9-0.9c0.4,0,1,0.1,1.6,0.6c11.4,9.5,17.7,17.2,26,31.8l3.4,6l4.7-5
	c7.4-8,18.9-19.7,32.3-30.1c9.7-7.6,22.6-17,36.5-22.7C652.3,567.5,652.6,567.4,653,567.4 M555.2,740.3c1.4,0,2.5,1.1,2.5,2.5
	s-1.1,2.5-2.5,2.5H495c-1.4,0-2.5-1.1-2.5-2.5s1.1-2.5,2.5-2.5H555.2 M630.7,299.4H419.4c-16.5,0-29.8,13.5-29.8,30.1v420.9
	c0,16.6,13.4,30.1,29.8,30.1h211.2c16.5,0,29.8-13.5,29.8-30.1v-45.1H404.7V374.5h240.8v120.2h15V329.4
	C660.5,312.8,647.1,299.4,630.7,299.4L630.7,299.4z M404.7,359.5v-30.1c0-8.3,6.6-15,14.8-15h211.2c8.2,0,14.8,6.7,14.8,15v30.1
	H404.7L404.7,359.5z M419.4,765.3c-8.2,0-14.8-6.7-14.8-15v-30.1h240.8v30.1c0,8.3-6.6,15-14.8,15H419.4L419.4,765.3z M555.2,329.4
	c-0.5,0-1,0-1.5,0.1c-0.5,0.1-1,0.2-1.4,0.4s-0.9,0.4-1.3,0.7c-0.4,0.3-0.8,0.6-1.1,0.9c-0.3,0.3-0.7,0.7-0.9,1.1
	c-0.3,0.4-0.5,0.8-0.7,1.3c-0.2,0.5-0.3,0.9-0.4,1.4c-0.1,0.5-0.1,1-0.1,1.5c0,0.5,0,1,0.1,1.5c0.1,0.5,0.2,1,0.4,1.4
	c0.2,0.5,0.4,0.9,0.7,1.3c0.3,0.4,0.6,0.8,0.9,1.1c0.3,0.3,0.7,0.7,1.1,0.9c0.4,0.3,0.8,0.5,1.3,0.7s0.9,0.3,1.4,0.4
	c0.5,0.1,1,0.1,1.5,0.1c0.5,0,1,0,1.5-0.1c0.5-0.1,1-0.2,1.4-0.4c0.5-0.2,0.9-0.4,1.3-0.7c0.4-0.3,0.8-0.6,1.1-0.9
	c0.3-0.3,0.7-0.7,0.9-1.1c0.3-0.4,0.5-0.8,0.7-1.3c0.2-0.5,0.3-0.9,0.4-1.4c0.1-0.5,0.1-1,0.1-1.5c0-0.5-0.1-1-0.1-1.5
	c-0.1-0.5-0.2-1-0.4-1.4c-0.2-0.5-0.4-0.9-0.7-1.3c-0.3-0.4-0.6-0.8-0.9-1.1c-0.4-0.3-0.7-0.7-1.1-0.9c-0.4-0.3-0.8-0.5-1.3-0.7
	c-0.5-0.2-0.9-0.3-1.4-0.4C556.1,329.5,555.7,329.4,555.2,329.4L555.2,329.4z M525.1,329.4c-0.5,0-1,0-1.5,0.1
	c-0.5,0.1-1,0.2-1.4,0.4c-0.5,0.2-0.9,0.4-1.3,0.7c-0.4,0.3-0.8,0.6-1.1,0.9c-0.3,0.3-0.7,0.7-0.9,1.1c-0.3,0.4-0.5,0.8-0.7,1.3
	c-0.2,0.5-0.3,0.9-0.4,1.4c-0.1,0.5-0.1,1-0.1,1.5c0,0.5,0,1,0.1,1.5c0.1,0.5,0.2,1,0.4,1.4c0.2,0.5,0.4,0.9,0.7,1.3
	c0.3,0.4,0.6,0.8,0.9,1.1c0.3,0.3,0.7,0.7,1.1,0.9c0.4,0.3,0.8,0.5,1.3,0.7c0.5,0.2,0.9,0.3,1.4,0.4c0.5,0.1,1,0.1,1.5,0.1
	s1,0,1.5-0.1c0.5-0.1,1-0.2,1.4-0.4c0.5-0.2,0.9-0.4,1.3-0.7c0.4-0.3,0.8-0.6,1.1-0.9c0.3-0.3,0.7-0.7,0.9-1.1
	c0.3-0.4,0.5-0.8,0.7-1.3c0.2-0.5,0.3-0.9,0.4-1.4c0.1-0.5,0.1-1,0.1-1.5c0-0.5-0.1-1-0.1-1.5c-0.1-0.5-0.2-1-0.4-1.4
	c-0.2-0.5-0.4-0.9-0.7-1.3c-0.3-0.4-0.6-0.8-0.9-1.1c-0.3-0.3-0.7-0.7-1.1-0.9c-0.4-0.3-0.8-0.5-1.3-0.7c-0.5-0.2-0.9-0.3-1.4-0.4
	C526,329.5,525.6,329.4,525.1,329.4L525.1,329.4z M495,329.4c-0.5,0-1,0-1.5,0.1c-0.5,0.1-1,0.2-1.4,0.4c-0.5,0.2-0.9,0.4-1.3,0.7
	c-0.4,0.3-0.8,0.6-1.1,0.9c-0.3,0.3-0.7,0.7-0.9,1.1c-0.3,0.4-0.5,0.8-0.7,1.3c-0.2,0.5-0.3,0.9-0.4,1.4c-0.1,0.5-0.1,1-0.1,1.5
	c0,0.5,0,1,0.1,1.5c0.1,0.5,0.2,1,0.4,1.4c0.2,0.5,0.4,0.9,0.7,1.3c0.3,0.4,0.6,0.8,0.9,1.1c0.3,0.3,0.7,0.7,1.1,0.9
	c0.4,0.3,0.8,0.5,1.3,0.7c0.5,0.2,0.9,0.3,1.4,0.4c0.5,0.1,1,0.1,1.5,0.1c0.5,0,1,0,1.5-0.1c0.5-0.1,1-0.2,1.4-0.4
	c0.5-0.2,0.9-0.4,1.3-0.7c0.4-0.3,0.8-0.6,1.1-0.9c0.3-0.3,0.7-0.7,0.9-1.1c0.3-0.4,0.5-0.8,0.7-1.3c0.2-0.5,0.3-0.9,0.4-1.4
	c0.1-0.5,0.1-1,0.1-1.5c0-0.5,0-1-0.1-1.5c-0.1-0.5-0.2-1-0.4-1.4c-0.2-0.5-0.4-0.9-0.7-1.3c-0.3-0.4-0.6-0.8-0.9-1.1
	c-0.3-0.3-0.7-0.7-1.1-0.9c-0.4-0.3-0.8-0.5-1.3-0.7c-0.5-0.2-0.9-0.3-1.4-0.4C495.9,329.5,495.4,329.4,495,329.4L495,329.4z
	 M585.8,389.6h-46.2c-16.3,0-29.6,13.2-29.6,29.5v46.2c0,16.3,13.2,29.5,29.6,29.5h46.2c16.3,0,29.6-13.2,29.6-29.5v-46.2
	C615.4,402.8,602.1,389.6,585.8,389.6L585.8,389.6z M539.6,479.7c-8,0-14.5-6.5-14.5-14.5v-46.2c0-8,6.5-14.5,14.5-14.5h46.2
	c8,0,14.5,6.5,14.5,14.5v46.2c0,8-6.5,14.5-14.5,14.5H539.6L539.6,479.7z M660.5,509.8H540.1c-16.6,0-30.1,13.5-30.1,30.1v120.2
	c0,16.6,13.5,30.1,30.1,30.1h120.4c16.6,0,30.1-13.5,30.1-30.1V539.9C690.6,523.3,677.1,509.8,660.5,509.8L660.5,509.8z
	 M540.1,675.2c-8.3,0-15-6.7-15-15V539.9c0-8.3,6.8-15,15-15h120.4c8.3,0,15.1,6.7,15.1,15v120.2c0,8.3-6.8,15-15.1,15H540.1
	L540.1,675.2z M473.8,509.8h-33c-11.7,0-21.1,9.4-21.1,21.1v33c0,11.7,9.5,21.1,21.1,21.1h33c11.7,0,21.1-9.4,21.1-21.1v-33
	C495,519.3,485.5,509.8,473.8,509.8L473.8,509.8z M440.8,569.9c-3.3,0-6.1-2.7-6.1-6.1v-33c0-3.3,2.7-6.1,6.1-6.1h33
	c3.3,0,6.1,2.7,6.1,6.1v33c0,3.3-2.7,6.1-6.1,6.1H440.8L440.8,569.9z M653,562.4c-0.9,0-1.9,0.2-2.8,0.6
	c-14.5,5.9-27.8,15.6-37.7,23.4c-13.8,10.8-25.7,22.9-32.8,30.6c-8.2-14.6-14.8-23-27.1-33.2c-1.4-1.2-3.1-1.7-4.8-1.7
	c-2.2,0-4.3,0.9-5.8,2.7c-2.7,3.2-2.2,7.9,1,10.6c13,10.8,18.3,18.6,28.6,38.1c1.2,2.2,3.4,3.7,5.9,4c0.3,0,0.5,0,0.8,0
	c2.2,0,4.3-1,5.8-2.7c0.2-0.2,17-20.3,37.8-36.6c9.2-7.2,21.3-16.1,34.1-21.3c3.8-1.6,5.7-6,4.1-9.8
	C658.8,564.2,655.9,562.4,653,562.4L653,562.4z M555.2,735.3H495c-4.2,0-7.5,3.4-7.5,7.5c0,4.2,3.4,7.5,7.5,7.5h60.2
	c4.2,0,7.5-3.4,7.5-7.5C562.7,738.6,559.3,735.3,555.2,735.3L555.2,735.3z"/>
</svg>
