<?xml version="1.0" encoding="utf-8"?>
<!-- Generator: Adobe Illustrator 26.4.1, SVG Export Plug-In . SVG Version: 6.00 Build 0)  -->
<svg version="1.1" id="Ebene_1" xmlns="http://www.w3.org/2000/svg" xmlns:xlink="http://www.w3.org/1999/xlink" x="0px" y="0px"
	 viewBox="0 0 1080 1080" style="enable-background:new 0 0 1080 1080;" xml:space="preserve">
<style type="text/css">
	.st0{fill:#E11D6B;}
</style>
<g>
	<path class="st0" d="M542.3,263.2l174.4,81.4L686,410.4c-0.7,1.5-0.6,3.3,0.3,4.8l91.5,146.5v256.8H302V561.7l99-158.4h72.8
		c1.9,0,3.7-1.1,4.5-2.9L542.3,263.2 M458.4,484.3h178.7c1.9,0,3.7-1.1,4.5-2.9L701,354c1.2-2.5,0.1-5.5-2.4-6.6l-146.8-68.5
		c-0.7-0.3-1.4-0.5-2.1-0.5c-0.6,0-1.2,0.1-1.7,0.3c-1.2,0.5-2.3,1.4-2.8,2.6l-91.3,195.8c-0.7,1.5-0.6,3.4,0.3,4.8
		C455.1,483.4,456.7,484.3,458.4,484.3 M320.9,565.3h438c1.8,0,3.5-1,4.4-2.6c0.9-1.6,0.8-3.5-0.1-5.1l-78.6-125.8
		c-0.9-1.5-2.5-2.4-4.2-2.4c-0.1,0-0.2,0-0.3,0c-1.8,0.1-3.5,1.2-4.2,2.9l-20.9,44.8c-0.7,1.5-0.6,3.4,0.3,4.8
		c0.9,1.4,2.5,2.3,4.2,2.3h17.2v10.2H403.2v-10.2h32.9c1.9,0,3.7-1.1,4.5-2.9l28.3-60.8c0.7-1.5,0.6-3.4-0.3-4.8
		c-0.9-1.4-2.5-2.3-4.2-2.3h-55c-1.7,0-3.3,0.9-4.2,2.4l-88.6,141.8c-1,1.5-1,3.5-0.1,5.1C317.4,564.3,319.1,565.3,320.9,565.3
		 M317.2,808.3h445.3c2.8,0,5-2.2,5-5V580.5c0-2.8-2.2-5-5-5H317.2c-2.8,0-5,2.2-5,5v222.8C312.2,806,314.5,808.3,317.2,808.3
		 M539.9,256.5l-66.1,141.8h-75.6L297,560.3v263.3h485.8V560.3l-92.3-147.7l32.8-70.4L539.9,256.5L539.9,256.5z M458.4,479.3
		l91.3-195.8l146.8,68.5l-59.4,127.4H458.4L458.4,479.3z M320.9,560.3l88.6-141.8h55l-28.3,60.8h-37.9v20.2h283.4v-20.2h-22.2
		l20.9-44.8l78.6,125.8H320.9L320.9,560.3z M317.2,803.3V580.5h445.3v222.8H317.2L317.2,803.3z"/>
</g>
</svg>
