<?xml version="1.0" encoding="utf-8"?>
<!-- Generator: Adobe Illustrator 26.4.1, SVG Export Plug-In . SVG Version: 6.00 Build 0)  -->
<svg version="1.1" id="Ebene_1" xmlns="http://www.w3.org/2000/svg" xmlns:xlink="http://www.w3.org/1999/xlink" x="0px" y="0px"
	 viewBox="0 0 1080 1080" style="enable-background:new 0 0 1080 1080;" xml:space="preserve">
<style type="text/css">
	.st0{fill:#EBE9E9;}
</style>
<g>
	<g>
		<path class="st0" d="M589.4,439c1.9,0,3.6,0.6,5.1,1.7c3.7,2.8,4.5,8.1,1.7,11.8l-69.8,91.9c0,0-0.1,0.1-0.1,0.1
			c-1.4,2-3.9,3.2-6.6,3.2c-2.8,0-5.3-1.2-6.8-3.3c0,0-0.1-0.1-0.1-0.1c-0.6-0.8-28.9-39.5-29.2-39.9c-2.5-3.4-1.9-6.4-1-8.2
			c1.6-3.1,5-5.2,8.4-5.2c2.5,0,4.6,1.2,6.3,3.5c0.1,0.1,18.5,25.3,18.5,25.3c0.9,1.3,2.4,2,4,2c0,0,0,0,0,0c1.6,0,3-0.7,4-2
			l58.8-77.5C584.3,440.2,586.8,439,589.4,439 M589.4,434c-4.1,0-8.1,1.8-10.7,5.3l-58.8,77.5c0,0-18.5-25.3-18.5-25.3
			c-2.9-3.9-6.6-5.5-10.3-5.5c-9.7,0-18.9,11.1-11.4,21.4c0,0,29.2,39.9,29.2,39.9l0,0c2.5,3.6,6.7,5.4,10.9,5.4
			c4.1,0,8.2-1.8,10.7-5.3l69.8-91.9c4.5-5.9,3.2-14.4-2.7-18.8C595.1,434.9,592.3,434,589.4,434L589.4,434z"/>
	</g>
	<g>
		<path class="st0" d="M539.9,340.4c36.7,0,71.2,12.6,97,35.5c29,25.6,45,62.4,46.4,106.4c-1.4,43.9-17.5,80.7-46.5,106.4
			c-25.8,22.9-60.3,35.4-97,35.4c-36.7,0-71.1-12.6-96.9-35.4c-28.9-25.6-45-62.4-46.4-106.4c1.4-44,17.4-80.8,46.4-106.4
			C468.8,353,503.2,340.4,539.9,340.4 M539.9,608.5c0.1,0,0.1,0,0.2,0c38.6-1.2,71.1-15.4,93.8-41c20.2-22.8,31.3-53.1,31.3-85.3
			c0-32.2-11.1-62.4-31.3-85.2c-22.7-25.6-55.2-39.7-93.8-40.9c-0.1,0-0.1,0-0.2,0c-0.1,0-0.1,0-0.2,0
			c-38.6,1.2-71.1,15.3-93.8,40.9c-20.2,22.7-31.3,53-31.4,85.2c0,32.2,11.1,62.5,31.3,85.3c22.7,25.6,55.2,39.8,93.8,41
			C539.8,608.5,539.9,608.5,539.9,608.5 M539.9,335.4c-72.7,0-145.3,48.9-148.3,146.9c3.1,97.9,75.6,146.8,148.3,146.8
			c72.7,0,145.4-48.9,148.5-146.8C685.3,384.4,612.6,335.4,539.9,335.4L539.9,335.4z M539.9,603.5c-160.4-5-160.4-237.5,0-242.4
			C700.4,366.1,700.3,598.4,539.9,603.5L539.9,603.5z"/>
	</g>
	<g>
		<path class="st0" d="M599.3,272.3c2.8,0,5.8,0.3,8.9,0.9c14.6,5.3,19.7,17.7,25.1,30.9c6.4,15.8,13.7,33.8,39.7,33.8
			c1.4,0,2.8-0.1,4.2-0.2c1.2-0.1,2.3-0.1,3.5-0.1c16.4,0,29.6,6,37,16.9c7.5,11,8.3,25.8,2.1,41.6c-0.1,0.1-0.1,0.3-0.1,0.4
			c-6.9,23.3-3.1,35.1,15.6,48.6c0.1,0.1,0.2,0.1,0.2,0.2c14.8,9.4,23.3,22.9,23.3,37c0,14.1-8.5,27.5-23.3,37
			c-0.1,0.1-0.2,0.1-0.2,0.2c-18.8,13.6-22.6,25.4-15.6,48.6c0,0.1,0.1,0.3,0.1,0.4c6.2,15.8,5.4,30.6-2.2,41.7
			c-7.3,10.8-20.2,16.7-36.2,16.7c-1,0-2,0-3-0.1c-0.1,0-0.2,0-0.2,0c-1.9,0-3.6,1-4.4,2.7c-0.9,1.7-0.7,3.8,0.5,5.4l71.5,93.2
			c2,2.8,2.2,6.4,0.4,9.4c0,0,0,0,0,0c-1.5,2.6-4.3,4.2-7.4,4.2c-0.4,0-0.7,0-1-0.1l-62-8.3c-0.2,0-0.4,0-0.7,0
			c-2.5,0-4.6,1.8-4.9,4.3c0,0-8.2,60.8-8.4,62.2c0,0,0,0,0,0c-0.6,4-4.4,7.2-8.6,7.3c-0.3,0-0.7,0-1,0.1
			c-2.1-1.3-8.3-6.7-24.9-27.7c-12.7-16.1-28-36.8-41.4-55.1c-38.3-51.9-41.8-55.7-46.6-55.7c-0.2,0-0.4,0-0.5,0
			c-1.4,0.1-2.6,0.8-3.5,1.9c-1,1.3-100.2,131.1-101.7,133c0,0.1-0.1,0.1-0.1,0.2c-1.9,2.7-4.8,3.2-6.4,3.2c-3.7,0-8-2.3-8.8-6.5
			c0-0.2,0-0.4,0-0.6l-8.4-62.2c-0.3-2.5-2.5-4.3-4.9-4.3c-0.2,0-0.4,0-0.7,0l-62,8.3c-0.4,0-0.7,0.1-1.1,0.1c-3,0-5.9-1.6-7.4-4.2
			c-1.7-3-1.5-6.7,0.5-9.4l71.4-93.2c1.2-1.5,1.4-3.6,0.5-5.4c-0.9-1.7-2.6-2.7-4.4-2.7c-0.1,0-0.2,0-0.2,0c-1,0-2.1,0.1-3.1,0.1
			c-15.9,0-28.7-5.9-36-16.7c-7.5-11-8.3-26.2-2.1-41.7c0.1-0.1,0.1-0.3,0.1-0.4c3.5-11.9,4.1-20,1.9-27.2
			c-2.3-7.7-7.7-14.3-17.6-21.4c-0.1-0.1-0.2-0.1-0.2-0.2c-14.8-9.4-23.3-22.8-23.3-36.9c0-14.1,8.5-27.6,23.3-37.1
			c0.1-0.1,0.2-0.1,0.2-0.2c9.8-7.1,15.3-13.6,17.6-21.2c2.2-7.2,1.6-15.4-1.9-27.3c0-0.1-0.1-0.3-0.1-0.4
			c-6.2-15.7-5.5-30.4,2-41.4c7.5-11,20.6-17,37-17c1.1,0,2.3,0,3.5,0.1c1.4,0.1,2.8,0.1,4.2,0.1c26.1,0,33.4-17.9,39.8-33.7
			c5.4-13.2,10.4-25.6,25.1-31c3-0.6,6-0.9,8.9-0.9c12,0,21.2,5.5,30.9,11.3c8.2,4.9,16.6,10,27.4,12.5c0.4,0.1,0.8,0.1,1.1,0.1
			c0.4,0,0.8,0,1.1-0.1c10.8-2.5,19.2-7.6,27.4-12.5C578.2,277.8,587.3,272.3,599.3,272.3C599.3,272.3,599.3,272.3,599.3,272.3
			 M540,313.2c-12.6-0.3-22.2-6.1-32.3-12.2c-8.7-5.2-17.6-10.6-28.3-12c-0.2,0-0.4,0-0.7,0c-1,0-2,0.3-2.8,0.9
			c-7.6,5.1-11.7,15-16.1,25.5c-4.8,11.3-9.7,23.1-19.1,30c-10.7,6.2-22.9,9.4-35.3,9.4c-0.1,0-0.3,0-0.4,0
			c-15.4,1.2-25.8,3-29.5,8.2c-0.3,0.4-0.6,0.9-0.7,1.4c-2.8,8.5-0.4,18.8,2.1,29.7c2.8,12.1,5.7,24.6,2.2,35.8
			c-5,10.9-12.9,20.4-22.7,27.3c-0.2,0.1-0.3,0.2-0.4,0.4l-0.4,0.3c-11.4,10.2-18.8,17.4-18.9,24.4c0,0.5,0.1,0.9,0.2,1.4
			c2.6,8.9,10.9,16.1,19.7,23.8c9.2,8.1,18.8,16.4,22.3,26.7c2.5,12.2,1.8,24.9-2.1,36.7c0,0.2-0.1,0.3-0.1,0.5l-0.2,0.9
			c-3.1,13.8-5,23.9-1.1,29.3c0.2,0.3,0.5,0.6,0.8,0.8c6.6,5.5,18.2,6.6,30.5,7.6c7.2,0.6,14.7,1.3,19.7,2.9
			c0.2,0.1,0.4,0.1,0.6,0.2c19.2,3.9,25.9,19.9,32.5,35.4c4.4,10.4,8.5,20.2,16.3,25.9c0.8,0.6,1.8,1,2.9,1c0.1,0,0.2,0,0.4,0
			c8.6,0,18.2-5.7,28.2-11.8c8.1-4.9,16.5-9.9,23.2-10.9c0.3,0,0.6-0.1,0.9-0.2c2.6-0.9,5.6-1.2,8.6-1.3c3,0.1,6,0.4,8.6,1.3
			c0.3,0.1,0.6,0.2,0.9,0.2c6.8,1.1,15.2,6.1,23.4,11c10.1,6,19.6,11.7,28.3,11.8c0,0,0,0,0.1,0c1.1,0,2.1-0.3,3-1
			c7.8-5.8,11.9-15.6,16.3-26c6.3-15,12.9-30.5,30.7-34.8c0.2,0,0.4-0.1,0.6-0.2c5.3-2,13.5-2.8,21.4-3.5
			c12.2-1.1,23.6-2.1,30.4-7.6c0.8-0.6,1.3-1.5,1.6-2.4c2.7-8.6,0.3-18.9-2.2-29.7c-2.8-12-5.7-24.5-2.3-35.7
			c5.1-11,13-20.6,22.8-27.7c0.1-0.1,0.2-0.2,0.4-0.3c10.9-9.5,19.2-17.3,19.2-24.5c0-0.5-0.1-1-0.2-1.4
			c-2.7-9.2-11.3-16.6-20.3-24.5c-9.1-8-18.5-16.2-21.7-26c-2.5-12.2-1.8-25,2.1-36.8c0-0.1,0.1-0.3,0.1-0.4l0-0.2
			c3.3-14.1,5.3-24.6,1.3-30c-0.3-0.4-0.7-0.8-1.1-1.1c-7.5-5.3-18.1-6.3-29.4-7.3c-12.3-1.1-25-2.2-34.4-9
			c-9.1-8.2-15.9-18.6-19.7-30.3c0-0.1-0.1-0.2-0.1-0.4c-5.3-12.8-10.2-23.6-17.2-25.7c-0.5-0.1-1-0.2-1.5-0.2c-0.1,0-0.2,0-0.2,0
			c-8.9,0.4-17.8,5.7-27.2,11.2C563,306.6,551.9,313.2,540,313.2 M371.3,720.6c0.2,0,0.5,0,0.7,0c7.1-1,13.2-1.9,18.7-2.8
			c10.6-1.6,18.3-2.8,23.7-2.8c6.2,0,7.8,1.4,9.3,4.6c2.2,4.9,3.2,13.9,4.8,27.5c0.6,5.3,1.3,11.3,2.2,18.2c0.3,2,1.7,3.7,3.7,4.2
			c0.4,0.1,0.9,0.2,1.3,0.2c1.5,0,3-0.7,4-2l51.8-67.6c1.3-1.7,1.4-3.9,0.3-5.7c-0.9-1.5-2.5-2.3-4.2-2.3c-0.3,0-0.7,0-1,0.1
			c-2.4,0.5-4.7,0.7-6.8,0.7c-18.3,0-26.6-17.9-35.3-36.9c-3.3-7.1-6.4-13.8-10.1-19.5c-0.9-1.4-2.4-2.2-4-2.3c-0.1,0-0.1,0-0.2,0
			c-1.6,0-3,0.7-4,2l-58.6,76.5c-1.2,1.6-1.4,3.8-0.4,5.6C367.9,719.6,369.5,720.6,371.3,720.6 M600.5,692.8c-2.2,0-4.5-0.3-6.9-0.8
			c-0.3-0.1-0.7-0.1-1-0.1c-1.7,0-3.3,0.9-4.2,2.3c-1.1,1.8-1,4,0.3,5.7l51.8,67.6c1,1.3,2.4,2,4,2c0.4,0,0.9-0.1,1.3-0.2
			c2-0.5,3.4-2.2,3.7-4.2l5.7-43.3c0.7-4.2,4.4-7.4,8.7-7.4c0.4,0,0.7,0,1.1,0.1l43.1,5.9c0.2,0,0.5,0,0.7,0c1.8,0,3.4-0.9,4.3-2.5
			c1-1.8,0.9-3.9-0.3-5.6L654,636c-0.9-1.2-2.4-2-4-2c-0.1,0-0.1,0-0.2,0c-1.6,0.1-3.1,0.9-4,2.3c-3.7,5.8-6.8,12.5-10.1,19.6
			C626.9,674.9,618.7,692.8,600.5,692.8 M599.3,267.3c-23.7,0-36.4,18.6-59.4,24c-23.1-5.4-35.7-24-59.4-24c-3.2,0-6.6,0.3-10.2,1.1
			c-36.9,13-21.2,64.5-63.6,64.5c-1.2,0-2.5,0-3.9-0.1c-1.3-0.1-2.5-0.1-3.7-0.1c-37.1,0-58,29.3-43.7,65.3
			c6,20.4,3.7,30.5-13.8,43.1c-34,21.7-34.3,60.6,0,82.4c17.6,12.6,19.7,22.9,13.8,43.1c-13.9,35.1,5.7,65.3,42.8,65.3
			c1.1,0,2.2,0,3.3-0.1L330.1,725c-3.2,4.4-3.5,10.2-0.8,14.9c2.5,4.2,7,6.7,11.8,6.7c0.6,0,1.1,0,1.7-0.1l62-8.3l8.4,62.2h0
			c0.9,7.1,7.4,11.5,13.8,11.5c4,0,7.9-1.6,10.5-5.3c0,0,101.7-133,101.7-133c0,0,0,0,0,0c7.2,0,99.7,138.9,113.1,138.9
			c0.4,0,0.8-0.1,1-0.4c6.6-0.1,12.6-5,13.5-11.6c0,0,8.4-62.2,8.4-62.2l62,8.3c0.6,0.1,1.1,0.1,1.7,0.1c4.8,0,9.3-2.5,11.7-6.7
			c2.8-4.7,2.5-10.5-0.7-14.9l-71.5-93.2c1.1,0,2.1,0.1,3.2,0.1c37.1,0,56.9-29.8,43-65.3c-6.1-20.5-3.7-30.5,13.7-43.1
			c34.1-21.8,34.2-60.6,0-82.4c-17.7-12.7-19.8-22.8-13.7-43.1c14.1-36-6.4-65.3-43.8-65.3c-1.2,0-2.5,0-3.8,0.1
			c-1.4,0.1-2.7,0.1-3.9,0.1c-42.1,0-26.8-51.7-63.5-64.5C605.9,267.7,602.5,267.3,599.3,267.3L599.3,267.3z M539.9,318.2
			c24.1-0.1,44-23.4,61.2-24.2c5.1,1.6,10.3,13.7,14,22.9c4.1,12.6,11.4,23.8,21.3,32.6c19.4,14.1,50,6.5,64,16.4
			c3,4,0,16.7-2.2,26.1c-4.2,12.8-4.9,26.5-2.2,39.6c6.7,21.2,37.2,34.2,42.1,50.6c0,5.4-9.7,14-17.5,20.7
			c-10.6,7.7-19.1,18-24.6,29.9c-7.3,23.1,9.4,49.6,4.4,65.7c-9.9,7.9-36.6,5-50.5,10.2c-33,7.9-31.6,48.8-48.8,61.7
			c-14.1-0.1-34.9-20.1-51-22.7c-3.2-1.2-6.8-1.5-10.3-1.6c-3.4,0.1-7,0.4-10.3,1.6c-15.9,2.4-36.7,22.7-50.7,22.7
			c-0.1,0-0.2,0-0.3,0c-17.5-13-15.7-55-50.7-62.2c-13.4-4.5-39.5-2-48.5-9.7c-3-4.1,0-16.7,2.1-26.1c4.2-12.8,4.9-26.4,2.2-39.6
			c-7.3-22.1-37.4-34.6-42.1-50.6c0-5.4,9.7-14,17.6-21c10.6-7.5,19.1-17.7,24.5-29.6c7.3-23-9.4-49.9-4.3-65.7
			c3-4.1,16.2-5.4,25.9-6.2c13.4,0,26.5-3.5,38-10.2c19.7-14.2,21.5-46.1,35.3-55.5C500,296.8,514.5,317.6,539.9,318.2L539.9,318.2z
			 M600.5,697.8c29,0,36.2-37.8,49.5-58.8l58.5,76.5l-43.1-5.9c-0.6-0.1-1.2-0.1-1.7-0.1c-6.7,0-12.6,4.9-13.7,11.7l-5.7,43.3
			L592.5,697C595.3,697.5,598,697.8,600.5,697.8L600.5,697.8z M371.3,715.6l58.6-76.5c13.4,21,20.5,58.7,49.6,58.7
			c2.5,0,5.1-0.3,7.8-0.8l-51.8,67.6c-5.6-43.4-3.6-54.6-21.2-54.6C405.8,709.9,392.5,712.6,371.3,715.6L371.3,715.6z"/>
	</g>
</g>
</svg>
