<?xml version="1.0" encoding="utf-8"?>
<!-- Generator: Adobe Illustrator 26.5.0, SVG Export Plug-In . SVG Version: 6.00 Build 0)  -->
<svg version="1.1" id="Ebene_1" xmlns="http://www.w3.org/2000/svg" xmlns:xlink="http://www.w3.org/1999/xlink" x="0px" y="0px"
	 viewBox="0 0 1080 1080" style="enable-background:new 0 0 1080 1080;" xml:space="preserve">
<style type="text/css">
	.st0{fill:#E11D6B;}
</style>
<g>
	<path class="st0" d="M776.3,342.3H303.6c-2.8,0-5,2.2-5,5v286.5c0,2.8,2.2,5,5,5h472.7c2.8,0,5-2.2,5-5V347.3
		C781.3,344.5,779.1,342.3,776.3,342.3z M776.3,633.8H303.6V347.3h472.7V633.8z"/>
	<path class="st0" d="M439.3,549.2l-8.5-8.5l40.2-40.2l9.6,9.6l9-9l38.5,38.5l-9.6,9.6l36.4,36.4l36.4-36.4l-8.6-8.6l84.4-84.4
		l9.6,9.6l36.4-36.4L676.6,393l-36.4,36.4l10,9.9l-84.4,84.4l-10.9-10.9l-10,10l-38.5-38.5l10.6-10.6l-36.4-36.4l-36.4,36.4l10,10
		L414,523.9l-11.1-11.1l-36.4,36.4l36.4,36.4L439.3,549.2z M403.1,519.8l7.5,7.5c1,1,2.3,1.5,3.5,1.5c1.3,0,2.6-0.5,3.5-1.5
		l40.2-40.2c0.9-0.9,1.5-2.2,1.5-3.5s-0.5-2.6-1.5-3.5l-6.4-6.4l29.3-29.3l29.3,29.3l-7.1,7.1c-2,2-2,5.1,0,7.1l38.5,38.5
		c0.9,0.9,2.2,1.5,3.5,1.5s2.6-0.5,3.5-1.5l6.5-6.5l7.4,7.4c0.9,0.9,2.2,1.5,3.5,1.5s2.6-0.5,3.5-1.5l84.4-84.4
		c0.9-0.9,1.5-2.2,1.5-3.5s-0.5-2.6-1.5-3.5l-6.4-6.4l29.3-29.4l29.3,29.3l-29.3,29.3l-6.1-6.1c-1-1-2.3-1.5-3.5-1.5
		c-1.3,0-2.6,0.5-3.5,1.5L579.1,537c-0.9,0.9-1.5,2.2-1.5,3.5s0.5,2.6,1.5,3.5l5.1,5.1l-29.3,29.3l-29.3-29.3l6-6c2-2,2-5.1,0-7.1
		l-38.5-38.5c-1-1-2.3-1.5-3.5-1.5c-1.3,0-2.6,0.5-3.5,1.5l-5.4,5.4l-6-6c-1-1-2.3-1.5-3.5-1.5c-1.3,0-2.6,0.5-3.5,1.5l-40.2,40.2
		c-2,2-2,5.1,0,7.1l4.9,4.9l-29.3,29.3l-29.3-29.3L403.1,519.8z"/>
	<path class="st0" d="M800,657.1V323.5H279.8v333.6h190.6v73.3h-29.8c-6.6,0-11.9,5.3-11.9,11.9c0,6.6,5.3,11.9,11.9,11.9h198.6
		c6.6,0,11.9-5.3,11.9-11.9c0-6.6-5.3-11.9-11.9-11.9h-29.8v-73.3H800z M609.5,735.4h29.8c3.8,0,6.9,3.1,6.9,6.9
		c0,3.8-3.1,6.9-6.9,6.9H440.7c-3.8,0-6.9-3.1-6.9-6.9c0-3.8,3.1-6.9,6.9-6.9h29.8c2.8,0,5-2.2,5-5v-73.3h129v73.3
		C604.5,733.2,606.7,735.4,609.5,735.4z M284.8,652.1V328.5H795v323.6H284.8z"/>
</g>
</svg>
