<?xml version="1.0" encoding="utf-8"?>
<!-- Generator: Adobe Illustrator 26.5.0, SVG Export Plug-In . SVG Version: 6.00 Build 0)  -->
<svg version="1.1" id="Ebene_1" xmlns="http://www.w3.org/2000/svg" xmlns:xlink="http://www.w3.org/1999/xlink" x="0px" y="0px"
	 viewBox="0 0 1080 1080" style="enable-background:new 0 0 1080 1080;" xml:space="preserve">
<style type="text/css">
	.st0{fill:none;stroke:#E11D6B;stroke-width:5;stroke-linejoin:round;stroke-miterlimit:10;}
	.st1{fill:none;stroke:#E11D6B;stroke-width:5;stroke-miterlimit:10;}
</style>
<path class="st0" d="M620.2,437.6c-0.8,0.8-1.6,1.4-2.6,2c-5.8,3.3-13.3,1.3-16.6-4.6c-5.4-9.5-12.1-18.2-19.8-26
	c-4.8-4.8-4.8-12.4,0-17.2c4.8-4.7,12.4-4.7,17.2,0c9.3,9.3,17.3,19.8,23.8,31.2C624.9,427.9,624,433.8,620.2,437.6"/>
<path class="st0" d="M559.4,381.9c-3.5,3.5-8.9,4.6-13.7,2.5c-28.4-13-61.6-14.5-91-4.1c-6.3,2.2-13.3-1.1-15.5-7.4
	s1.1-13.3,7.4-15.5c35.9-12.6,74.7-10.8,109.2,4.9c6.1,2.8,8.8,10,6,16.1C561.2,379.7,560.4,380.9,559.4,381.9"/>
<path class="st0" d="M657.3,495.1c0,43.3-16.9,84-47.5,114.7c-30.6,30.6-71.3,47.5-114.6,47.5s-84-16.9-114.6-47.5
	s-47.5-71.3-47.5-114.7c0-43.3,16.9-84,47.5-114.6S451.9,333,495.2,333s84,16.9,114.6,47.5S657.3,451.8,657.3,495.1z"/>
<g>
	<path class="st0" d="M577.2,459.3l-83.8-34.9l-83.8,34.9l83.8,34.9L577.2,459.3z"/>
</g>
<g>
	<path class="st0" d="M485.5,612.3V507.9L399.4,472v104.5L485.5,612.3z"/>
</g>
<g>
	<path class="st0" d="M501.2,612.3V507.9l86.2-35.9v104.5L501.2,612.3z"/>
</g>
<path class="st1" d="M664.4,626.2L816.2,778l-37.3,37.3L627,663.5l9.2-8.2l-7.7-7.7c-79.6,69.8-200.8,66.7-276.7-9.2
	c-79.1-79.1-79.1-207.5,0-286.6c79.2-79.1,207.5-79.1,286.6,0c75.9,75.9,79,197.1,9.2,276.7l7.7,7.7L664.4,626.2z"/>
</svg>
