<?xml version="1.0" encoding="utf-8"?>
<!-- Generator: Adobe Illustrator 26.4.1, SVG Export Plug-In . SVG Version: 6.00 Build 0)  -->
<svg version="1.1" id="Ebene_1" xmlns="http://www.w3.org/2000/svg" xmlns:xlink="http://www.w3.org/1999/xlink" x="0px" y="0px"
	 viewBox="0 0 1080 1080" style="enable-background:new 0 0 1080 1080;" xml:space="preserve">
<style type="text/css">
	.st0{fill:#E11D6B;}
</style>
<g>
	<path class="st0" d="M604,261.5v11.8c0,2.8,2.2,5,5,5h74.2V301H609c-2.8,0-5,2.2-5,5V368c0,2.8,2.2,5,5,5h40.3v21.6
		c0,2.8,2.2,5,5,5h99c2.8,0,5-2.2,5-5v-24.1h18.4v154.2h-18.4v-20.9c0-2.8-2.2-5-5-5H443.5c-10.1,0-14,2.8-16.3,5.2
		c-4.4,4.6-8.1,13.5-10.1,24.4c-1.5,8.4-1.6,15.6-1.6,17l0,0l0,1.1v92.9c0,2.8,2.2,5,5,5h8.1v17.3H303.2v-17.3h8.1c2.8,0,5-2.2,5-5
		v-90.9c0,0,0-0.1,0-0.1c-0.1-5.4-0.1-19.8,3.2-37.8c2.3-12.8,5.9-24.9,10.6-35.9c6.4-15.1,15-28.3,25.4-39.2
		c22.4-23.4,52.9-35.8,88-35.8h80.5c2.8,0,5-2.2,5-5V373h40.3c2.8,0,5-2.2,5-5V306c0-2.8-2.2-5-5-5h-74.2v-22.8h74.2
		c2.8,0,5-2.2,5-5v-11.8H604 M604.2,256.5h-30.1c-2.6,0-4.8,2.2-4.8,4.8v12H494c-2.2,0-4,1.8-4,4v24.9c0,2.2,1.8,4,4,4h75.2V368
		h-45.3v26.6h-80.5c-36.6,0-68.3,12.9-91.7,37.4c-10.9,11.4-19.8,25.1-26.4,40.7c-4.8,11.3-8.5,23.8-10.9,36.9
		c-3.4,18.5-3.4,33.5-3.2,38.8v90.9h-9.8c-1.8,0-3.3,1.5-3.3,3.3v20.7c0,1.8,1.5,3.3,3.3,3.3h128.9c1.8,0,3.3-1.5,3.3-3.3v-20.7
		c0-1.8-1.5-3.3-3.3-3.3h-9.8v-93l-0.1-1.2c0-0.1-0.1-7.1,1.5-15.9c1.8-9.8,5.1-17.9,8.8-21.8c1-1.1,3.5-3.6,12.7-3.6h309.9v22.4
		c0,1.9,1.5,3.4,3.4,3.4h21.5c1.9,0,3.4-1.5,3.4-3.4V368.8c0-1.9-1.6-3.5-3.5-3.5l0,0h-21.5c-1.9,0-3.4,1.5-3.4,3.4v25.7h-99V368
		H609V306h75.2c2.2,0,4-1.8,4-4v-24.9c0-2.2-1.8-4-4-4H609v-12C609,258.7,606.8,256.5,604.2,256.5L604.2,256.5z"/>
</g>
<g>
	<path class="st0" d="M366.1,691.3l72.9,127H293.2L366.1,691.3 M366.1,681.2l-81.5,142h163L366.1,681.2L366.1,681.2z"/>
</g>
</svg>
