<?xml version="1.0" encoding="utf-8"?>
<!-- Generator: Adobe Illustrator 26.4.1, SVG Export Plug-In . SVG Version: 6.00 Build 0)  -->
<svg version="1.1" id="Ebene_1" xmlns="http://www.w3.org/2000/svg" xmlns:xlink="http://www.w3.org/1999/xlink" x="0px" y="0px"
	 viewBox="0 0 1080 1080" style="enable-background:new 0 0 1080 1080;" xml:space="preserve">
<style type="text/css">
	.st0{fill:#EBE9E9;}
</style>
<g>
	<g>
		<path class="st0" d="M540.1,308.6c4,0,8,0.1,11.8,0.3c4,0.2,8,0.5,11.8,0.9c4,0.4,7.9,0.9,11.8,1.5c3.9,0.6,7.8,1.3,11.7,2.1
			c3.8,0.8,7.7,1.7,11.5,2.7c3.8,1,7.6,2.1,11.4,3.3c3.7,1.2,7.5,2.5,11.2,3.8c3.7,1.4,7.4,2.8,11,4.4c3.6,1.5,7.2,3.2,10.8,4.9
			c3.5,1.7,7.1,3.6,10.5,5.5c3.5,1.9,6.9,4,10.2,6c3.3,2.1,6.7,4.3,9.9,6.5c3.3,2.3,6.5,4.6,9.6,7c3.1,2.4,6.2,4.9,9.2,7.5
			c3,2.6,6,5.3,8.8,7.9c2.8,2.6,5.6,5.5,8.4,8.4c0,0,0,0,0,0c0.5,0.5,0.8,1,1.2,1.6c0.3,0.6,0.5,1.2,0.7,1.9c0.1,0.7,0.2,1.3,0.1,2
			c-0.1,0.7-0.2,1.3-0.5,1.9c-0.3,0.6-0.6,1.2-1,1.7c-0.4,0.5-0.9,0.9-1.5,1.3c-0.6,0.4-1.2,0.7-1.8,0.8c-0.6,0.2-1.3,0.3-1.9,0.3
			c-0.9,0-1.8-0.2-2.6-0.5c-0.7-0.3-1.4-0.7-2-1.3c0,0-0.1-0.1-0.1-0.1c-0.1,0-0.1-0.1-0.2-0.1c-2.5-2.6-5.1-5.2-7.7-7.7
			c-2.7-2.6-5.5-5.1-8.3-7.5c-2.8-2.4-5.7-4.8-8.7-7.1c-2.9-2.3-6-4.5-9-6.6c-3.1-2.1-6.2-4.2-9.3-6.1c-3.2-2-6.4-3.9-9.6-5.7
			c-3.2-1.8-6.6-3.5-9.9-5.2c-3.3-1.6-6.7-3.2-10.2-4.7c-3.4-1.4-6.9-2.8-10.4-4.1c-3.5-1.3-7-2.5-10.6-3.6
			c-3.5-1.1-7.1-2.1-10.8-3.1c-3.6-0.9-7.3-1.8-10.9-2.5c-3.6-0.7-7.3-1.4-11-2c-3.6-0.6-7.4-1-11.1-1.4c-3.7-0.4-7.5-0.7-11.2-0.8
			c-3.6-0.2-7.4-0.3-11.2-0.3c-3.8,0-7.5,0.1-11.2,0.3c-3.7,0.2-7.5,0.5-11.2,0.8c-3.7,0.4-7.5,0.9-11.1,1.4c-3.7,0.6-7.4,1.2-11,2
			c-3.6,0.7-7.3,1.6-10.9,2.5c-3.7,1-7.3,2-10.7,3.1c-3.5,1.1-7.1,2.3-10.6,3.6c-3.5,1.3-7,2.7-10.4,4.1c-3.4,1.5-6.8,3-10.2,4.7
			c-3.3,1.6-6.6,3.4-9.9,5.2c-3.3,1.8-6.5,3.7-9.6,5.7c-3.1,1.9-6.2,4-9.3,6.2c-3.1,2.1-6.1,4.4-9,6.6c-2.9,2.3-5.8,4.6-8.7,7.1
			c-2.8,2.4-5.6,4.9-8.3,7.5c-2.7,2.5-5.3,5.1-7.7,7.7c-0.3,0.2-0.6,0.4-0.9,0.6c-0.3,0.2-0.7,0.4-1.2,0.5c-0.4,0.1-0.8,0.3-1.2,0.3
			c-0.3,0.1-0.7,0.1-1.1,0.1c-0.1,0-0.1,0-0.2,0c-0.4,0-0.8-0.1-1.2-0.1c-0.4-0.1-0.8-0.2-1.2-0.4c-0.4-0.2-0.8-0.4-1.1-0.6
			c-0.4-0.2-0.7-0.5-1-0.8c-0.3-0.3-0.6-0.6-0.8-1c-0.2-0.4-0.5-0.7-0.6-1.1c-0.2-0.4-0.3-0.8-0.4-1.2c-0.1-0.4-0.1-0.8-0.2-1.2
			c0,0,0-0.1,0-0.1c0-0.4,0-0.8,0.1-1.2c0.1-0.4,0.2-0.8,0.3-1.3c0.1-0.4,0.3-0.8,0.5-1.1c0.2-0.4,0.4-0.7,0.7-0.9
			c2.7-2.9,5.5-5.6,8.3-8.3c2.9-2.7,5.8-5.4,8.8-7.9c3-2.5,6.1-5.1,9.2-7.5c3.1-2.4,6.3-4.7,9.6-7c3.2-2.2,6.6-4.4,9.9-6.5
			c3.3-2,6.7-4,10.2-6c3.5-1.9,7-3.8,10.5-5.5c3.6-1.8,7.2-3.4,10.8-4.9c3.7-1.6,7.4-3,11-4.4c3.7-1.4,7.5-2.7,11.2-3.8
			c3.8-1.2,7.6-2.3,11.4-3.3c3.9-1,7.8-1.9,11.5-2.7c3.8-0.8,7.7-1.5,11.7-2.1c3.8-0.6,7.8-1.1,11.7-1.5c3.8-0.4,7.8-0.7,11.8-0.9
			C532.1,308.7,536.1,308.6,540.1,308.6 M540.1,303.6c-4,0-8.1,0.1-12.1,0.3c-4,0.2-8.1,0.5-12.1,0.9c-4,0.4-8,0.9-12,1.5
			c-4,0.6-8,1.3-11.9,2.1c-4,0.8-7.9,1.7-11.8,2.7c-3.9,1-7.8,2.1-11.6,3.3s-7.7,2.5-11.4,3.9c-3.8,1.4-7.5,2.9-11.2,4.5
			c-3.7,1.6-7.4,3.3-11,5c-3.6,1.8-7.2,3.6-10.7,5.6c-3.5,2-7,4-10.4,6.1c-3.4,2.1-6.8,4.3-10.1,6.6c-3.3,2.3-6.6,4.7-9.8,7.1
			c-3.2,2.5-6.3,5-9.4,7.6c-3.1,2.6-6.1,5.3-9,8.1c-2.9,2.8-5.8,5.6-8.6,8.5c-0.5,0.6-0.9,1.2-1.3,1.8c-0.4,0.6-0.7,1.3-0.9,2
			c-0.2,0.7-0.4,1.4-0.5,2.1c-0.1,0.7-0.1,1.5-0.1,2.2c0,0,0,0,0,0c0,0,0,0,0,0c0,0.7,0.1,1.5,0.3,2.2c0.2,0.7,0.4,1.4,0.7,2.1
			c0.3,0.7,0.7,1.3,1.1,1.9c0.4,0.6,0.9,1.2,1.4,1.7c0.5,0.5,1.1,1,1.7,1.4c0.6,0.4,1.3,0.8,1.9,1.1c0.7,0.3,1.4,0.5,2.1,0.7
			c0.7,0.2,1.5,0.2,2.2,0.3c0.1,0,0.2,0,0.3,0c0.6,0,1.2,0,1.9-0.2c0.7-0.1,1.4-0.3,2.1-0.6s1.4-0.6,2-0.9c0.6-0.4,1.2-0.8,1.8-1.3
			c2.5-2.6,5.1-5.2,7.7-7.7c2.6-2.5,5.3-5,8.1-7.3c2.8-2.4,5.6-4.7,8.5-6.9c2.9-2.2,5.8-4.4,8.8-6.5c3-2.1,6-4.1,9.1-6
			c3.1-1.9,6.2-3.8,9.4-5.5c3.2-1.8,6.4-3.5,9.7-5.1c3.3-1.6,6.6-3.1,9.9-4.6s6.7-2.8,10.2-4.1c3.4-1.3,6.9-2.4,10.3-3.5
			c3.5-1.1,7-2.1,10.5-3c3.5-0.9,7.1-1.7,10.7-2.5c3.6-0.7,7.2-1.4,10.8-1.9c3.6-0.6,7.2-1,10.8-1.4c3.6-0.4,7.3-0.6,10.9-0.8
			c3.6-0.2,7.3-0.3,10.9-0.3s7.3,0.1,10.9,0.3c3.6,0.2,7.3,0.5,10.9,0.8c3.6,0.4,7.2,0.8,10.8,1.4c3.6,0.6,7.2,1.2,10.8,1.9
			c3.6,0.7,7.1,1.6,10.7,2.5c3.5,0.9,7,1.9,10.5,3c3.5,1.1,6.9,2.3,10.3,3.5c3.4,1.3,6.8,2.6,10.2,4.1s6.7,3,9.9,4.6
			c3.3,1.6,6.5,3.3,9.7,5.1c3.2,1.8,6.3,3.6,9.4,5.5s6.1,3.9,9.1,6c3,2.1,5.9,4.2,8.8,6.5c2.9,2.2,5.7,4.5,8.5,6.9
			c2.8,2.4,5.5,4.8,8.1,7.3c2.6,2.5,5.2,5.1,7.7,7.7c0.1,0.1,0.2,0.2,0.3,0.3c1,1,2.2,1.7,3.5,2.3c1.5,0.6,3,0.9,4.5,0.9
			c1.2,0,2.3-0.2,3.4-0.5c1.1-0.3,2.1-0.8,3.1-1.5c1-0.6,1.8-1.4,2.5-2.3c0.7-0.9,1.3-1.9,1.8-2.9c0.4-1.1,0.7-2.2,0.9-3.3
			c0.1-1.2,0.1-2.3-0.1-3.4c-0.2-1.1-0.6-2.2-1.1-3.2c-0.5-1-1.2-1.9-2-2.8c-2.8-2.9-5.6-5.8-8.6-8.5c-2.9-2.8-5.9-5.5-9-8.1
			c-3.1-2.6-6.2-5.2-9.4-7.6c-3.2-2.5-6.4-4.8-9.8-7.1c-3.3-2.3-6.7-4.5-10.1-6.6c-3.4-2.1-6.9-4.2-10.4-6.1
			c-3.5-2-7.1-3.8-10.7-5.6c-3.6-1.8-7.3-3.5-11-5c-3.7-1.6-7.5-3.1-11.2-4.5c-3.8-1.4-7.6-2.7-11.4-3.9s-7.7-2.3-11.6-3.3
			c-3.9-1-7.8-1.9-11.8-2.7c-4-0.8-7.9-1.5-11.9-2.1c-4-0.6-8-1.1-12-1.5c-4-0.4-8-0.7-12.1-0.9
			C548.2,303.7,544.1,303.6,540.1,303.6L540.1,303.6z"/>
	</g>
	<g>
		<path class="st0" d="M673.3,497.1c0.1,0,0.2,0,0.3,0c0.4,0,0.9,0.1,1.3,0.2c0.4,0.1,0.8,0.2,1.2,0.4c0.4,0.2,0.8,0.4,1.1,0.7
			c0.3,0.3,0.7,0.5,1,0.8c0,0,0,0,0,0c0,0,0,0,0,0c0,0,0,0,0,0c0.3,0.3,0.5,0.6,0.8,1c0.2,0.4,0.4,0.7,0.6,1.1
			c5.6,15.8,8.4,32.4,8.4,49.2c0,0,0,0.1,0,0.1l0.1,6.1c0,29.1,2.9,58.4,8.6,87c0,0.2,0.1,0.3,0.1,0.5l6.6,21.7l6.7,21.7
			c0.1,0.3,0.1,0.6,0.2,0.8c0,0.2,0.1,0.5,0.1,0.8c0,0.3,0,0.5,0,0.8c0,0.3,0,0.5-0.1,0.8c0,0.3-0.1,0.5-0.2,0.8
			c-0.1,0.3-0.2,0.5-0.3,0.7c-0.1,0.3-0.2,0.5-0.4,0.7c-0.1,0.2-0.3,0.4-0.4,0.6c-0.2,0.2-0.3,0.4-0.5,0.6c-0.2,0.2-0.4,0.4-0.6,0.6
			c-0.2,0.1-0.4,0.3-0.6,0.5c-0.2,0.1-0.4,0.3-0.7,0.4c-0.3,0.1-0.5,0.2-0.7,0.3c-0.3,0.1-0.5,0.2-0.8,0.2c-0.2,0.1-0.5,0.1-0.8,0.1
			c-0.2,0-0.5,0-0.7,0c0,0-0.1,0-0.1,0c-0.5,0-1.1-0.1-1.6-0.2c0,0,0,0-0.1,0c-0.2,0-0.4-0.1-0.5-0.1c-0.7-0.2-1.3-0.6-1.9-1
			c-0.6-0.4-1.1-0.9-1.5-1.5c-0.4-0.6-0.7-1.2-0.9-1.9l-13.3-44.1c-6-29.7-9.1-60.1-9.1-90.3c0,0,0-0.1,0-0.1l-0.1-6.3
			c0-15.3-2.5-30.5-7.6-44.9c-0.1-0.4-0.2-0.8-0.3-1.2c-0.1-0.4-0.1-0.9,0-1.3c0-0.5,0.1-0.9,0.2-1.3c0.1-0.4,0.3-0.8,0.5-1.2
			c0.2-0.4,0.4-0.7,0.7-1.1c0.3-0.3,0.6-0.7,0.9-1c0.3-0.3,0.7-0.5,1-0.8c0.4-0.2,0.8-0.4,1.2-0.6c0.4-0.1,0.8-0.2,1.3-0.3
			C672.7,497.1,673,497.1,673.3,497.1 M673.3,492.1c-0.6,0-1.1,0-1.7,0.1c-0.8,0.1-1.5,0.3-2.2,0.5c-0.7,0.2-1.4,0.6-2.1,1
			s-1.3,0.8-1.8,1.3c-0.6,0.5-1.1,1.1-1.5,1.7c-0.5,0.6-0.9,1.2-1.2,1.9c-0.3,0.7-0.6,1.4-0.8,2.1s-0.3,1.5-0.4,2.2
			c-0.1,0.8,0,1.5,0.1,2.3c0.1,0.8,0.3,1.5,0.5,2.2c4.9,14,7.4,28.5,7.3,43.4l0.1,6.3c0,30.8,3.1,61.3,9.3,91.5l13.4,44.3
			c0.4,1.2,0.9,2.3,1.6,3.4c0.7,1,1.6,1.9,2.6,2.7c1,0.8,2.1,1.3,3.3,1.7c0.3,0.1,0.6,0.2,0.9,0.3c0.9,0.2,1.8,0.3,2.8,0.3l0,0
			c0,0,0,0,0,0c0,0,0,0,0,0c0,0,0,0,0,0c0.5,0,0.9,0,1.4-0.1c0.5-0.1,0.9-0.1,1.3-0.2c0.4-0.1,0.9-0.2,1.3-0.4
			c0.4-0.2,0.8-0.3,1.3-0.5c0.4-0.2,0.8-0.4,1.2-0.7c0.4-0.3,0.8-0.5,1.1-0.8c0.3-0.3,0.7-0.6,1-0.9c0.3-0.3,0.6-0.7,0.9-1.1
			c0.3-0.4,0.5-0.8,0.8-1.2c0.2-0.4,0.4-0.8,0.6-1.2c0.2-0.4,0.3-0.8,0.5-1.3c0.1-0.4,0.2-0.9,0.3-1.3c0.1-0.5,0.1-0.9,0.2-1.4
			c0-0.5,0-0.9,0-1.4c0-0.5-0.1-0.9-0.2-1.4c-0.1-0.4-0.2-0.9-0.3-1.3l-6.7-21.7l-6.6-21.7c-5.7-28.4-8.5-57.1-8.5-86.1l-0.1-6.1
			c0-17.5-2.9-34.4-8.7-50.9c-0.3-0.7-0.6-1.4-1-2c-0.4-0.7-0.9-1.2-1.4-1.8c0,0,0,0,0,0c0,0,0,0,0,0c-0.5-0.6-1.1-1.1-1.7-1.5
			s-1.3-0.8-2-1.2c-0.7-0.3-1.4-0.6-2.1-0.8c-0.7-0.2-1.5-0.3-2.2-0.3C673.7,492.1,673.5,492.1,673.3,492.1L673.3,492.1z"/>
	</g>
	<g>
		<path class="st0" d="M540,497c1.7,0,3.5,0.1,5.1,0.2c1.8,0.2,3.5,0.4,5.2,0.8c1.7,0.3,3.4,0.7,5.1,1.3c1.7,0.5,3.4,1.1,5,1.8
			c1.6,0.7,3.2,1.4,4.8,2.2c1.5,0.8,3.1,1.7,4.5,2.7c1.5,1,2.9,2,4.3,3.1c1.4,1.1,2.7,2.3,3.9,3.5c1.3,1.3,2.5,2.6,3.6,3.9
			c1.1,1.4,2.2,2.8,3.2,4.2c1,1.4,1.9,3,2.7,4.5c0.8,1.6,1.6,3.2,2.3,4.8c0.7,1.6,1.3,3.3,1.8,5c0.5,1.7,1,3.4,1.3,5.1
			c0.4,1.7,0.6,3.5,0.8,5.2c0.2,1.7,0.3,3.4,0.3,5.2c-0.3,11.8-1.1,23.7-2.3,35.4c-1.2,11.8-3,23.6-5.2,35.2
			c-2.2,11.6-4.9,23.3-8,34.7c-3.1,11.4-6.7,22.8-10.8,33.9c-4,11.1-8.6,22.2-13.5,32.9c-4.9,10.7-10.3,21.4-16.1,31.7
			c-5.8,10.4-12,20.6-18.6,30.3c-6.6,9.8-13.6,19.5-21,28.8c-0.3,0.3-0.6,0.7-0.9,0.9c-0.3,0.3-0.7,0.5-1.1,0.7
			c-0.3,0.2-0.6,0.3-1.1,0.5c0,0,0,0-0.1,0l-0.1,0c-0.1,0-0.1,0-0.2,0.1c0,0-0.1,0-0.1,0c-0.7,0.2-1.3,0.3-1.9,0.3
			c-0.6,0-1.2-0.1-1.9-0.3c-0.6-0.2-1.2-0.4-1.7-0.7c-0.5-0.3-1-0.7-1.4-1.2c-0.4-0.5-0.8-1-1.1-1.5c-0.3-0.6-0.5-1.1-0.6-1.8
			c-0.1-0.6-0.1-1.2-0.1-1.9c0.1-0.6,0.2-1.2,0.4-1.8c0.2-0.6,0.5-1.1,0.9-1.6c7.1-8.9,13.9-18.2,20.3-27.7
			c6.4-9.5,12.4-19.4,18-29.3c5.6-10,10.8-20.3,15.6-30.7c4.8-10.4,9.2-21.1,13.1-31.9c3.9-10.8,7.4-21.8,10.5-32.8
			c3-11,5.7-22.3,7.8-33.5c2.1-11.3,3.9-22.7,5.1-34.1c1.2-11.3,2-22.9,2.3-34.3c0,0,0-0.1,0-0.1c0-1.3-0.1-2.6-0.2-3.9
			c-0.1-1.3-0.3-2.6-0.6-3.9c-0.3-1.3-0.6-2.6-0.9-3.8c-0.4-1.3-0.8-2.6-1.3-3.7c-0.5-1.2-1.1-2.4-1.7-3.6c-0.6-1.2-1.3-2.3-2-3.4
			c-0.7-1.1-1.5-2.2-2.3-3.2c-0.8-1-1.7-2-2.6-2.9c-0.9-0.9-1.9-1.8-2.9-2.7c-1-0.8-2.1-1.6-3.2-2.4c-1.1-0.7-2.2-1.4-3.4-2
			c-1.1-0.6-2.3-1.2-3.6-1.7c-1.2-0.5-2.4-0.9-3.7-1.4c-1.3-0.4-2.6-0.7-3.8-1c-1.3-0.3-2.6-0.5-3.9-0.6c-1.3-0.1-2.6-0.2-4-0.2
			l-0.2,0c-1.3,0-2.5,0.1-3.8,0.2c-1.3,0.1-2.6,0.3-3.9,0.6c-1.3,0.3-2.6,0.6-3.8,0.9c-1.2,0.4-2.5,0.8-3.7,1.3
			c-1.2,0.5-2.4,1-3.6,1.7c-1.1,0.6-2.2,1.3-3.4,2c-1.1,0.7-2.2,1.5-3.2,2.3c-1,0.8-2,1.7-2.9,2.6c-0.9,0.9-1.8,1.9-2.7,2.9
			c-0.8,1-1.6,2.1-2.4,3.2c-0.7,1.1-1.4,2.2-2,3.4c-0.6,1.1-1.2,2.3-1.7,3.6c-0.5,1.2-1,2.4-1.3,3.7c-0.4,1.2-0.7,2.5-1,3.9
			c-0.3,1.3-0.5,2.6-0.6,3.9c-0.1,1.3-0.2,2.6-0.2,3.9c-0.3,9.2-0.9,18.5-1.9,27.7c-1,9.2-2.4,18.5-4.2,27.5
			c-1.7,9.1-3.9,18.2-6.4,27.1c-2.5,8.9-5.4,17.8-8.6,26.5c-3.2,8.7-6.8,17.3-10.7,25.7c-3.9,8.4-8.2,16.7-12.7,24.8
			c-4.6,8.1-9.5,16-14.7,23.6c-5.2,7.6-10.7,15.1-16.6,22.4c-0.3,0.4-0.6,0.7-0.9,1c-0.3,0.3-0.7,0.5-1.1,0.8
			c-0.4,0.2-0.8,0.4-1.2,0.5c-0.4,0.1-0.8,0.2-1.3,0.3c-0.2,0-0.4,0-0.7,0l-0.2,0c-0.2,0-0.3,0-0.5,0c-0.4,0-0.9-0.1-1.3-0.2
			c-0.4-0.1-0.8-0.3-1.2-0.5c-0.4-0.2-0.8-0.4-1.1-0.7c-0.3-0.3-0.7-0.6-0.9-0.9c-0.3-0.3-0.5-0.7-0.8-1.1c-0.2-0.4-0.4-0.8-0.5-1.2
			c-0.1-0.4-0.2-0.8-0.3-1.3c-0.1-0.4-0.1-0.9-0.1-1.3c0-0.4,0.1-0.9,0.2-1.3c0.1-0.5,0.3-0.9,0.5-1.3c0.2-0.4,0.4-0.7,0.6-1.1
			c5.5-6.9,10.8-14,15.8-21.3c5-7.3,9.7-14.9,14.1-22.6c4.4-7.7,8.5-15.6,12.2-23.7c3.8-8.1,7.2-16.3,10.3-24.6
			c3.1-8.2,5.9-16.8,8.3-25.3c2.4-8.6,4.5-17.3,6.2-25.9c1.7-8.7,3.1-17.6,4.2-26.3c1-8.8,1.7-17.7,2-26.6c0-0.1,0-0.1,0-0.2
			c0-1.7,0.1-3.5,0.2-5.3c0.2-1.7,0.4-3.5,0.8-5.2c0.3-1.7,0.7-3.4,1.3-5.1c0.5-1.6,1.1-3.3,1.8-5c0.7-1.6,1.4-3.3,2.2-4.8
			c0.8-1.5,1.7-3.1,2.7-4.5c1-1.5,2-2.9,3.1-4.3c1.1-1.4,2.3-2.7,3.5-3.9c1.3-1.3,2.6-2.5,3.9-3.6c1.4-1.1,2.8-2.2,4.2-3.2
			c1.5-1,3-1.9,4.5-2.7c1.5-0.8,3.1-1.6,4.8-2.3c1.6-0.7,3.3-1.3,5-1.8c1.7-0.5,3.4-1,5.1-1.3c1.7-0.4,3.5-0.6,5.2-0.8
			c1.7-0.2,3.5-0.3,5.3-0.3L540,497 M540,492c-0.1,0-0.1,0-0.2,0c-1.9,0-3.8,0.1-5.8,0.3s-3.8,0.5-5.7,0.9c-1.9,0.4-3.8,0.9-5.6,1.4
			c-1.8,0.6-3.7,1.2-5.4,2c-1.8,0.7-3.5,1.6-5.2,2.5c-1.7,0.9-3.3,1.9-4.9,3c-1.6,1.1-3.1,2.2-4.6,3.5c-1.5,1.2-2.9,2.5-4.3,3.9
			c-1.4,1.4-2.6,2.8-3.9,4.3c-1.2,1.5-2.4,3-3.4,4.6c-1.1,1.6-2,3.3-2.9,5c-0.9,1.7-1.7,3.4-2.4,5.2c-0.7,1.8-1.4,3.6-1.9,5.4
			c-0.6,1.8-1,3.7-1.4,5.6c-0.4,1.9-0.6,3.8-0.8,5.7c-0.2,1.9-0.3,3.8-0.3,5.8c-0.3,8.8-1,17.5-2,26.2c-1,8.7-2.4,17.3-4.1,25.9
			c-1.7,8.6-3.8,17.1-6.1,25.5c-2.4,8.4-5.1,16.7-8.2,24.9c-3.1,8.2-6.4,16.3-10.1,24.2c-3.7,7.9-7.7,15.7-12,23.3
			c-4.3,7.6-8.9,15-13.9,22.3c-4.9,7.2-10.1,14.3-15.6,21.1c-0.5,0.6-0.8,1.3-1.2,2c-0.3,0.7-0.6,1.4-0.8,2.1
			c-0.2,0.7-0.3,1.5-0.3,2.3c0,0.8,0,1.5,0.1,2.3c0.1,0.8,0.3,1.5,0.5,2.2c0.2,0.7,0.6,1.4,1,2.1c0.4,0.7,0.8,1.3,1.3,1.9
			c0.5,0.6,1.1,1.1,1.7,1.6c0.6,0.5,1.2,0.9,1.9,1.2c0.7,0.3,1.4,0.6,2.1,0.8c0.7,0.2,1.5,0.3,2.2,0.4c0.3,0,0.6,0,0.8,0
			c0.1,0,0.2,0,0.3,0c0.4,0,0.8,0,1.2-0.1c0.8-0.1,1.5-0.3,2.2-0.5c0.7-0.2,1.4-0.5,2.1-0.9s1.3-0.8,1.9-1.3c0.6-0.5,1.1-1,1.6-1.6
			c5.9-7.3,11.5-14.9,16.8-22.7c5.3-7.8,10.3-15.8,14.9-24c4.7-8.2,9-16.6,12.9-25.1c4-8.5,7.6-17.2,10.8-26.1
			c3.3-8.8,6.2-17.8,8.7-26.9c2.5-9.1,4.7-18.2,6.5-27.5c1.8-9.2,3.2-18.6,4.2-27.9c1-9.4,1.7-18.8,1.9-28.2c0-1.2,0.1-2.3,0.2-3.5
			c0.1-1.1,0.3-2.3,0.5-3.4c0.2-1.1,0.5-2.3,0.9-3.4c0.3-1.1,0.7-2.2,1.2-3.3c0.4-1.1,0.9-2.1,1.5-3.1c0.5-1,1.1-2,1.8-3
			c0.6-1,1.3-1.9,2.1-2.8c0.7-0.9,1.5-1.7,2.3-2.6c0.8-0.8,1.7-1.6,2.6-2.3c0.9-0.7,1.8-1.4,2.8-2.1c1-0.6,2-1.2,3-1.8
			c1-0.5,2.1-1,3.1-1.5c1.1-0.4,2.2-0.8,3.3-1.2c1.1-0.3,2.2-0.6,3.4-0.8c1.1-0.2,2.3-0.4,3.4-0.5c1.1-0.1,2.2-0.2,3.3-0.2
			c0.1,0,0.1,0,0.2,0c1.2,0,2.3,0.1,3.5,0.2c1.2,0.1,2.3,0.3,3.4,0.5c1.1,0.2,2.3,0.5,3.4,0.9c1.1,0.3,2.2,0.7,3.3,1.2
			c1.1,0.4,2.1,0.9,3.1,1.5s2,1.1,3,1.8s1.9,1.3,2.8,2.1c0.9,0.7,1.7,1.5,2.6,2.3c0.8,0.8,1.6,1.7,2.3,2.6c0.7,0.9,1.4,1.8,2.1,2.8
			s1.2,2,1.8,3c0.5,1,1,2.1,1.5,3.1c0.4,1.1,0.8,2.2,1.2,3.3c0.3,1.1,0.6,2.2,0.8,3.4c0.2,1.1,0.4,2.3,0.5,3.4
			c0.1,1.2,0.2,2.3,0.2,3.5c-0.3,11.3-1.1,22.7-2.3,33.9c-1.2,11.3-2.9,22.5-5,33.7c-2.1,11.2-4.7,22.2-7.7,33.1
			c-3,10.9-6.5,21.8-10.3,32.4c-3.9,10.7-8.2,21.2-12.9,31.5c-4.7,10.3-9.9,20.4-15.4,30.3c-5.5,9.9-11.5,19.6-17.8,29
			c-6.3,9.4-13,18.6-20.1,27.5c-0.7,0.9-1.2,1.8-1.6,2.8c-0.4,1-0.6,2.1-0.7,3.2c-0.1,1.1,0,2.2,0.2,3.2c0.2,1.1,0.5,2.1,1,3.1
			c0.5,1,1.1,1.9,1.8,2.7c0.7,0.8,1.6,1.5,2.5,2.1c0.9,0.6,1.9,1,3,1.3c1,0.3,2.1,0.4,3.2,0.4c1.2,0,2.3-0.2,3.4-0.5
			c0.1,0,0.3-0.1,0.4-0.1c0.1,0,0.1,0,0.1-0.1c0.1,0,0.1,0,0.2-0.1c0.6-0.2,1.2-0.5,1.8-0.8c0.7-0.4,1.3-0.8,1.9-1.3
			c0.6-0.5,1.1-1,1.6-1.6c7.5-9.4,14.5-19.1,21.2-29.1c6.7-10,12.9-20.2,18.8-30.7c5.8-10.5,11.3-21.2,16.2-32.1
			c5-10.9,9.5-22,13.6-33.3c4.1-11.3,7.7-22.7,10.9-34.3c3.2-11.6,5.9-23.3,8.1-35.1c2.2-11.8,4-23.7,5.2-35.6
			c1.3-11.9,2-23.9,2.3-35.9c0-1.9-0.1-3.8-0.3-5.8s-0.5-3.8-0.9-5.7c-0.4-1.9-0.9-3.8-1.4-5.6c-0.6-1.8-1.2-3.6-2-5.4
			c-0.7-1.8-1.6-3.5-2.5-5.2c-0.9-1.7-1.9-3.3-3-4.9c-1.1-1.6-2.2-3.1-3.5-4.6c-1.2-1.5-2.5-2.9-3.9-4.3c-1.4-1.4-2.8-2.6-4.3-3.9
			c-1.5-1.2-3-2.4-4.7-3.4c-1.6-1.1-3.3-2-5-2.9c-1.7-0.9-3.4-1.7-5.2-2.4c-1.8-0.7-3.6-1.4-5.4-1.9c-1.8-0.6-3.7-1-5.6-1.4
			c-1.9-0.4-3.8-0.6-5.7-0.8C543.7,492.1,541.9,492,540,492L540,492z"/>
	</g>
	<g>
		<path class="st0" d="M606.4,691.4c0.1,0,0.2,0,0.4,0c0.7,0,1.4,0.2,2,0.4c0.7,0.3,1.2,0.6,1.8,1c0.5,0.4,1,0.9,1.4,1.5
			c0.4,0.6,0.7,1.2,0.9,1.9c0,0.1,0,0.1,0,0.2c0,0.2,0.2,0.5,0.3,1.1c3.9,12.8,7.4,24.2,10.6,33.7l14.3,45c0.1,0.4,0.2,0.8,0.3,1.3
			c0,0.4,0.1,0.8,0,1.3c0,0.4-0.1,0.9-0.3,1.3c-0.1,0.4-0.3,0.8-0.5,1.2c-0.2,0.4-0.4,0.8-0.7,1.1c-0.3,0.4-0.6,0.7-0.9,1
			c-0.3,0.3-0.7,0.5-1.1,0.8c-0.4,0.2-0.7,0.4-1.1,0.5c0,0,0,0,0,0c-0.1,0-0.1,0-0.2,0.1c-0.1,0-0.2,0.1-0.2,0.1
			c-0.4,0.1-0.8,0.2-1.2,0.2c-0.2,0-0.5,0-0.7,0c-0.2,0-0.4,0-0.6,0c-0.4,0-0.9-0.1-1.3-0.2c-0.4-0.1-0.8-0.3-1.2-0.5
			c-0.4-0.2-0.8-0.5-1.1-0.7c-0.3-0.3-0.7-0.6-0.9-0.9c-0.3-0.4-0.5-0.7-0.8-1.1c-0.2-0.4-0.4-0.8-0.5-1.2l-14.1-44.9
			c0,0,0-0.1,0-0.1c-0.7-2-1.2-3.7-1.8-5.3c-0.6-2-2.4-3.3-4.5-3.4c-0.1,0-0.2,0-0.3,0c-1.9,0-3.7,1.1-4.5,2.9
			c-12.5,26.8-26.6,53.3-42.1,78.7c-0.3,0.6-0.7,1.1-1,1.7c-0.6,1-1.2,2.1-1.9,3.1c0,0.1-0.2,0.2-0.2,0.3l-0.1,0.1
			c0,0-0.1,0.1-0.1,0.1c-0.1,0.1-0.2,0.3-0.3,0.4c0,0,0,0.1-0.1,0.1c0,0,0,0,0,0c-0.1,0.1-0.1,0.2-0.2,0.2c-0.1,0-0.1,0.1-0.2,0.1
			l-0.1,0.1c-0.4,0.3-0.8,0.6-1.1,0.8c-0.1,0-0.2,0.1-0.3,0.1l-0.2,0.1c0,0,0,0,0,0c-0.2,0.1-0.3,0.1-0.6,0.2l-0.1,0
			c-0.1,0-0.2,0.1-0.3,0.1l-0.1,0c-0.5,0.1-1,0.2-1.6,0.2l-0.1,0c0,0,0,0-0.1,0c-0.6,0-1.2-0.1-1.8-0.2c-0.6-0.2-1.1-0.4-1.7-0.7
			c-0.5-0.3-1-0.7-1.4-1.1c-0.4-0.5-0.8-0.9-1.1-1.5c-0.3-0.5-0.5-1.1-0.6-1.7c-0.1-0.6-0.2-1.2-0.2-1.8c0-0.6,0.1-1.2,0.3-1.8
			c0.2-0.6,0.4-1.1,0.8-1.6c0,0,0-0.1,0.1-0.1c21.4-35.2,40.5-72.3,56.8-110.1c0,0,0-0.1,0-0.1c0.3-0.6,0.6-1.2,1-1.7
			c0.4-0.5,0.9-1,1.5-1.3c0.6-0.4,1.2-0.6,1.8-0.8c0.3-0.1,0.7-0.1,1-0.2c0.1,0,0.1,0,0.2,0C605.9,691.4,606.1,691.4,606.4,691.4
			 M606.4,686.4c-0.4,0-0.8,0-1.2,0.1c-0.6,0-1.2,0.1-1.8,0.3c-1.2,0.3-2.3,0.7-3.3,1.4c-1,0.6-1.9,1.4-2.7,2.3
			c-0.8,0.9-1.4,1.9-1.9,3.1c-16.3,37.8-35.1,74.3-56.5,109.5c-0.6,0.9-1,1.8-1.3,2.8c-0.3,1-0.5,2-0.5,3.1c0,1.1,0.1,2.1,0.3,3.1
			s0.6,2,1.1,2.9c0.5,0.9,1.1,1.8,1.9,2.5c0.7,0.8,1.6,1.4,2.5,1.9c0.9,0.5,1.9,0.9,2.9,1.2c1,0.3,2.1,0.4,3.1,0.4c0,0,0.1,0,0.1,0
			c1,0,1.9-0.1,2.8-0.3c0.2-0.1,0.5-0.1,0.7-0.2c0.1,0,0.1,0,0.2-0.1c0.3-0.1,0.7-0.2,1-0.4c0,0,0,0,0,0c0,0,0,0,0,0
			c0.3-0.1,0.6-0.2,0.9-0.4c0.7-0.4,1.3-0.8,1.9-1.3c0.1,0,0.1-0.1,0.2-0.1c0.1-0.1,0.2-0.2,0.3-0.3c0.1-0.1,0.3-0.3,0.4-0.4
			c0,0,0.1-0.1,0.1-0.1c0,0,0.1-0.1,0.1-0.1c0.2-0.2,0.4-0.5,0.6-0.7c0,0,0.1-0.1,0.1-0.1c0.2-0.3,0.4-0.5,0.6-0.8
			c1-1.6,2-3.3,3-4.9c15.6-25.6,29.7-52,42.3-79.2c0.6,1.8,1.2,3.6,1.8,5.3l14.1,44.9c0.2,0.7,0.5,1.4,0.9,2.1
			c0.4,0.7,0.8,1.3,1.3,1.9s1,1.1,1.7,1.6c0.6,0.5,1.2,0.9,1.9,1.3c0.7,0.4,1.4,0.6,2.1,0.9c0.7,0.2,1.5,0.4,2.3,0.4
			c0.4,0,0.7,0,1.1,0c0.4,0,0.8,0,1.3-0.1c0.8-0.1,1.5-0.2,2.3-0.5c0.1,0,0.2-0.1,0.3-0.1c0,0,0,0,0,0c0.7-0.2,1.4-0.5,2.1-0.9
			c0.7-0.4,1.3-0.8,1.9-1.3c0.6-0.5,1.1-1,1.6-1.7s0.9-1.2,1.3-1.9s0.6-1.4,0.9-2.1c0.2-0.7,0.4-1.5,0.4-2.3c0.1-0.8,0.1-1.5,0-2.3
			c-0.1-0.8-0.2-1.5-0.5-2.3l-14.3-45c-5.7-16.9-10.9-34.8-10.9-34.8c-0.3-1.2-0.9-2.2-1.5-3.2c-0.7-1-1.5-1.9-2.4-2.6
			c-0.9-0.8-2-1.3-3.1-1.8c-1.1-0.4-2.3-0.7-3.5-0.8C606.8,686.4,606.6,686.4,606.4,686.4L606.4,686.4z"/>
	</g>
	<g>
		<path class="st0" d="M534.9,261.5c1.7,0,3.4,0,5.1,0c0,0,0.1,0,0.1,0c0,0,0.1,0,0.1,0c1.6,0,3.2,0,4.8,0c19,0,38.1,1.9,56.8,5.6
			c20.2,4.1,40,10.3,58.9,18.5c0.3,0.2,0.6,0.3,1,0.5c0.3,0.2,0.6,0.5,0.9,0.7c0.3,0.3,0.5,0.6,0.8,0.9c0.2,0.3,0.4,0.6,0.6,1
			c0.2,0.3,0.3,0.7,0.4,1c0.1,0.4,0.2,0.8,0.2,1.1c0,0.4,0.1,0.8,0,1.1c0,0.4-0.1,0.8-0.1,1.2c-0.1,0.4-0.2,0.7-0.3,1.1
			c-0.2,0.4-0.3,0.7-0.5,1c-0.2,0.4-0.5,0.7-0.7,0.9c-0.3,0.3-0.5,0.5-0.8,0.8c0,0,0,0,0,0c-0.3,0.2-0.6,0.4-0.9,0.6c0,0,0,0,0,0
			c-0.3,0.2-0.6,0.3-1,0.5c-0.4,0.1-0.7,0.2-1.1,0.3c-0.4,0.1-0.8,0.1-1.2,0.1c-1,0-1.9-0.2-2.8-0.6c0,0,0,0-0.1,0
			c-18-7.8-36.9-13.8-56.2-17.6c-17.7-3.5-35.8-5.3-53.8-5.3c-1.6,0-3.2,0-4.8,0c-1.7,0-3.5,0-5.2,0c-17.9,0-35.8,1.8-53.4,5.3
			c-19.3,3.8-38.2,9.8-56.2,17.6c-0.1,0-0.1,0.1-0.2,0.1c-0.4,0.2-0.8,0.4-1.3,0.5c-0.4,0.1-0.9,0.2-1.3,0.2c-0.1,0-0.3,0-0.4,0
			c-0.3,0-0.6,0-0.9-0.1c-0.4-0.1-0.9-0.2-1.3-0.3c-0.4-0.1-0.8-0.3-1.2-0.6c-0.4-0.2-0.7-0.5-1.1-0.8c-0.3-0.3-0.6-0.6-0.9-1
			c-0.3-0.4-0.5-0.8-0.7-1.2c-0.2-0.4-0.3-0.8-0.4-1.3c-0.1-0.5-0.2-0.9-0.2-1.4c0-0.4,0-0.9,0.1-1.4c0.1-0.4,0.2-0.9,0.3-1.3
			c0.2-0.4,0.4-0.8,0.6-1.2c0.2-0.4,0.5-0.7,0.8-1c0.3-0.3,0.7-0.6,1-0.9c0.4-0.3,0.8-0.5,1.2-0.6c0,0,0,0,0.1,0
			c9.4-4.1,19.2-7.8,29-10.9c9.8-3.1,19.9-5.7,30-7.7c10.1-2,20.4-3.5,30.6-4.4C517.6,261.9,526.3,261.5,534.9,261.5 M534.9,256.5
			c-8.8,0-17.5,0.4-26.3,1.2c-10.5,0.9-20.9,2.5-31.2,4.5c-10.3,2.1-20.5,4.7-30.5,7.9c-10,3.2-19.8,6.9-29.5,11.1
			c-0.7,0.3-1.4,0.7-2.1,1.1c-0.6,0.4-1.2,1-1.8,1.5c-0.5,0.6-1,1.2-1.5,1.8c-0.4,0.7-0.8,1.4-1.1,2.1c-0.3,0.7-0.5,1.5-0.6,2.3
			c-0.1,0.8-0.2,1.6-0.2,2.3c0,0.8,0.1,1.6,0.3,2.3c0.2,0.8,0.4,1.5,0.8,2.2c0.3,0.7,0.7,1.4,1.2,2c0.5,0.6,1,1.2,1.6,1.7
			c0.6,0.5,1.2,1,1.9,1.4c0.7,0.4,1.4,0.7,2.1,1c0.7,0.3,1.5,0.4,2.3,0.6c0.5,0.1,1.1,0.1,1.6,0.1c0.2,0,0.5,0,0.7,0
			c0.8,0,1.6-0.2,2.3-0.4c0.8-0.2,1.5-0.5,2.2-0.8c17.8-7.8,36.2-13.5,55.2-17.3c17.3-3.4,34.8-5.2,52.4-5.2c1.7,0,3.4,0,5.2,0
			c1.6,0,3.2,0,4.8,0c17.8,0,35.4,1.7,52.8,5.2c19,3.8,37.4,9.6,55.2,17.3c1.5,0.7,3.2,1.1,4.9,1.1c0.7,0,1.3-0.1,2-0.2
			c0.7-0.1,1.3-0.3,1.9-0.5c0.6-0.2,1.2-0.5,1.8-0.8c0.6-0.3,1.1-0.7,1.7-1.1c0.5-0.4,1-0.9,1.4-1.4s0.8-1,1.2-1.6
			c0.3-0.6,0.6-1.2,0.9-1.8c0.2-0.6,0.4-1.3,0.6-1.9c0.1-0.7,0.2-1.3,0.3-2c0-0.7,0-1.3-0.1-2c-0.1-0.7-0.2-1.3-0.4-1.9
			c-0.2-0.6-0.4-1.3-0.7-1.8c-0.3-0.6-0.6-1.2-1-1.7c-0.4-0.5-0.8-1-1.3-1.5c-0.5-0.5-1-0.9-1.5-1.3c-0.6-0.4-1.1-0.7-1.7-1
			c-19.3-8.4-39.3-14.7-59.9-18.9c-19.1-3.8-38.3-5.7-57.8-5.7c-1.6,0-3.2,0-4.8,0C538.3,256.5,536.6,256.5,534.9,256.5L534.9,256.5
			z"/>
	</g>
	<g>
		<path class="st0" d="M539.9,355.6c2.3,0,4.6,0,6.8,0.1c3.7,0.1,7.4,0.4,11.1,0.7c3.7,0.3,7.4,0.8,11,1.3c3.7,0.5,7.3,1.2,10.9,2
			c3.7,0.8,7.3,1.6,10.8,2.6c3.5,0.9,7.1,2,10.6,3.2c3.5,1.2,7,2.4,10.4,3.8c3.5,1.4,6.9,2.8,10.2,4.4c3.3,1.5,6.6,3.2,9.9,4.9
			c3.3,1.7,6.5,3.6,9.6,5.5c3.1,1.9,6.3,3.9,9.3,6c3,2.1,6.1,4.3,9,6.6c2.9,2.2,5.8,4.6,8.6,7.1c2.8,2.4,5.5,4.9,8.2,7.5
			c2.6,2.6,5.2,5.2,7.7,8c2.4,2.7,4.9,5.5,7.2,8.4c2.4,2.9,4.6,5.9,6.8,8.8c2.2,3,4.3,6.1,6.2,9.2c2,3.1,3.9,6.3,5.7,9.5
			c1.8,3.2,3.5,6.5,5.2,9.8c1.6,3.3,3.2,6.7,4.6,10.1c1.4,3.4,2.8,6.9,4,10.3c1.2,3.4,2.4,7,3.4,10.6c1,3.5,2,7.1,2.8,10.7
			c0.8,3.6,1.6,7.2,2.2,10.9c0.6,3.6,1.2,7.3,1.6,11c0.4,3.6,0.7,7.3,1,11.1c0.2,3.6,0.3,7.4,0.3,11.1c0,0.4,0,0.9-0.1,1.3
			c-0.1,0.5-0.2,0.9-0.4,1.3c-0.2,0.4-0.4,0.8-0.6,1.2c-0.2,0.4-0.5,0.7-0.8,1c-0.3,0.3-0.7,0.6-1,0.8c-0.4,0.3-0.8,0.5-1.2,0.6
			c-0.4,0.2-0.8,0.3-1.3,0.4c-0.4,0.1-0.9,0.1-1.3,0.1c-0.4,0-0.9,0-1.3-0.1c-0.4-0.1-0.8-0.2-1.3-0.4c-0.4-0.2-0.8-0.4-1.2-0.6
			c-0.4-0.3-0.7-0.5-1-0.9c-0.3-0.3-0.6-0.7-0.9-1c-0.2-0.4-0.4-0.7-0.6-1.2c-0.2-0.4-0.3-0.8-0.4-1.3c-0.1-0.4-0.1-0.9-0.1-1.3
			c0-3.4-0.1-6.9-0.3-10.3c-0.2-3.4-0.5-6.8-0.9-10.3c-0.4-3.4-0.9-6.8-1.5-10.2c-0.6-3.4-1.3-6.8-2.1-10.1c-0.8-3.2-1.6-6.6-2.6-10
			c-1-3.3-2-6.6-3.2-9.8c-1.1-3.2-2.4-6.5-3.7-9.6c-1.3-3.1-2.8-6.3-4.3-9.4c-1.5-3.1-3.1-6.1-4.8-9.1c-1.7-3-3.5-5.9-5.3-8.9
			c-1.9-2.9-3.8-5.8-5.8-8.5c-2-2.8-4.1-5.5-6.3-8.2c-2.1-2.6-4.4-5.3-6.7-7.8c-2.3-2.5-4.7-5-7.2-7.4c-2.5-2.4-5-4.8-7.6-7
			c-2.6-2.2-5.2-4.4-8-6.6c-2.7-2.1-5.5-4.1-8.3-6.1c-2.9-2-5.8-3.9-8.7-5.6c-3-1.8-6-3.5-9-5.1c-3-1.6-6.1-3.1-9.3-4.6
			c-3.1-1.4-6.3-2.8-9.5-4.1c-3.2-1.3-6.5-2.4-9.7-3.5c-3.2-1.1-6.5-2.1-9.9-3c-3.3-0.9-6.7-1.7-10-2.4c-3.3-0.7-6.7-1.3-10.2-1.8
			c-3.4-0.5-6.8-0.9-10.2-1.2c-3.4-0.3-6.9-0.5-10.3-0.7c-2.1-0.1-4.2-0.1-6.3-0.1c-1.3,0-2.7,0-4,0c-3.3,0.1-6.8,0.2-10.3,0.5
			c-3.5,0.3-6.9,0.6-10.3,1.1c-3.4,0.5-6.8,1-10.2,1.7c-3.3,0.6-6.7,1.4-10.1,2.3c0,0-0.1,0-0.1,0c-0.4,0.1-0.9,0.2-1.3,0.2
			c-0.2,0-0.3,0-0.5,0c-0.3,0-0.6,0-0.8-0.1c-0.4-0.1-0.9-0.2-1.3-0.3c-0.4-0.1-0.8-0.3-1.2-0.6c-0.4-0.2-0.8-0.5-1.1-0.8
			c-0.3-0.3-0.7-0.6-0.9-1c-0.3-0.4-0.5-0.8-0.7-1.2c-0.2-0.4-0.3-0.8-0.5-1.3c-0.1-0.4-0.2-0.9-0.2-1.3c0-0.5,0-0.9,0.1-1.4
			c0.1-0.4,0.2-0.9,0.3-1.3c0.1-0.4,0.3-0.8,0.6-1.2c0.2-0.4,0.5-0.7,0.8-1.1c0.3-0.3,0.6-0.6,1-0.9c0.4-0.3,0.7-0.5,1.2-0.7
			c0.4-0.2,0.8-0.3,1.3-0.4c0,0,0.1,0,0.1,0c3.5-0.9,7.2-1.7,10.8-2.4c3.6-0.7,7.3-1.3,11-1.8c3.6-0.5,7.4-0.9,11-1.2
			c3.7-0.3,7.4-0.5,11.1-0.6C537,355.6,538.5,355.6,539.9,355.6 M539.9,350.6c-1.5,0-2.9,0-4.4,0c-3.8,0.1-7.6,0.3-11.4,0.6
			c-3.8,0.3-7.6,0.7-11.3,1.2c-3.8,0.5-7.5,1.1-11.2,1.9c-3.7,0.7-7.4,1.6-11.1,2.5c-0.8,0.2-1.5,0.4-2.2,0.8
			c-0.7,0.3-1.4,0.7-2,1.2c-0.6,0.5-1.2,1-1.8,1.5c-0.5,0.6-1,1.2-1.4,1.9c-0.4,0.7-0.8,1.4-1,2.1c-0.3,0.7-0.5,1.5-0.6,2.3
			c-0.1,0.8-0.2,1.6-0.1,2.3c0,0.8,0.2,1.6,0.3,2.3c0.2,0.8,0.5,1.5,0.8,2.2c0.3,0.7,0.8,1.4,1.2,2c0.5,0.6,1,1.2,1.6,1.7
			c0.6,0.5,1.2,1,1.9,1.4c0.7,0.4,1.4,0.7,2.1,1c0.7,0.2,1.5,0.4,2.3,0.5c0.5,0.1,1,0.1,1.5,0.1c0.3,0,0.6,0,0.9,0
			c0.8-0.1,1.6-0.2,2.3-0.4c3.2-0.8,6.5-1.6,9.8-2.2c3.3-0.6,6.6-1.2,9.9-1.6c3.3-0.5,6.6-0.8,10-1.1c3.3-0.3,6.7-0.4,10-0.5
			c1.3,0,2.6,0,3.9,0c2,0,4.1,0,6.1,0.1c3.3,0.1,6.7,0.3,10,0.6c3.3,0.3,6.7,0.7,10,1.2c3.3,0.5,6.6,1.1,9.9,1.8
			c3.3,0.7,6.5,1.5,9.8,2.3s6.4,1.8,9.6,2.9c3.2,1.1,6.3,2.2,9.4,3.4c3.1,1.2,6.2,2.5,9.2,3.9c3,1.4,6,2.9,9,4.5
			c3,1.6,5.9,3.2,8.7,5c2.9,1.7,5.7,3.6,8.4,5.5c2.8,1.9,5.5,3.9,8.1,5.9c2.6,2.1,5.2,4.2,7.8,6.4c2.5,2.2,5,4.5,7.4,6.8
			c2.4,2.3,4.7,4.7,7,7.2c2.3,2.5,4.4,5,6.6,7.6c2.1,2.6,4.2,5.2,6.1,8c2,2.7,3.8,5.5,5.7,8.3c1.8,2.8,3.5,5.7,5.2,8.6
			c1.6,2.9,3.2,5.9,4.7,8.9c1.5,3,2.9,6.1,4.2,9.1c1.3,3.1,2.5,6.2,3.6,9.4c1.1,3.2,2.2,6.3,3.1,9.6c0.9,3.2,1.8,6.4,2.5,9.7
			c0.8,3.3,1.4,6.5,2,9.8c0.6,3.3,1,6.6,1.4,9.9c0.4,3.3,0.7,6.7,0.9,10s0.3,6.7,0.3,10c0,0.8,0.1,1.5,0.2,2.3
			c0.2,0.8,0.4,1.5,0.7,2.2s0.7,1.4,1.1,2c0.4,0.6,0.9,1.2,1.5,1.8c0.5,0.5,1.1,1,1.8,1.5c0.6,0.4,1.3,0.8,2,1.1s1.4,0.5,2.2,0.7
			c0.8,0.2,1.5,0.2,2.3,0.2c0.8,0,1.5-0.1,2.3-0.2c0.8-0.2,1.5-0.4,2.2-0.7c0.7-0.3,1.4-0.7,2-1.1c0.6-0.4,1.2-0.9,1.8-1.5
			c0.5-0.5,1-1.1,1.5-1.8c0.4-0.6,0.8-1.3,1.1-2s0.5-1.4,0.7-2.2c0.2-0.8,0.2-1.5,0.2-2.3c0-3.8-0.1-7.6-0.3-11.4s-0.5-7.6-1-11.3
			c-0.4-3.8-1-7.5-1.6-11.3c-0.6-3.7-1.4-7.5-2.3-11.2s-1.8-7.4-2.9-11c-1.1-3.6-2.2-7.2-3.5-10.8c-1.3-3.6-2.6-7.1-4.1-10.6
			c-1.5-3.5-3-6.9-4.7-10.4c-1.7-3.4-3.4-6.8-5.3-10.1c-1.9-3.3-3.8-6.6-5.9-9.8c-2-3.2-4.2-6.3-6.4-9.4c-2.2-3.1-4.5-6.1-6.9-9
			s-4.9-5.8-7.4-8.6c-2.6-2.8-5.2-5.5-7.9-8.2c-2.7-2.7-5.5-5.2-8.4-7.7c-2.9-2.5-5.8-4.9-8.8-7.2c-3-2.3-6.1-4.6-9.2-6.7
			c-3.1-2.2-6.3-4.2-9.6-6.2c-3.2-2-6.5-3.9-9.9-5.6c-3.3-1.8-6.8-3.5-10.2-5.1c-3.4-1.6-6.9-3.1-10.5-4.5s-7.1-2.7-10.7-3.9
			c-3.6-1.2-7.2-2.3-10.9-3.3c-3.7-1-7.4-1.9-11.1-2.6c-3.7-0.8-7.4-1.4-11.2-2c-3.8-0.6-7.5-1-11.3-1.4c-3.8-0.3-7.6-0.6-11.4-0.7
			C544.6,350.6,542.2,350.6,539.9,350.6L539.9,350.6z"/>
	</g>
	<g>
		<path class="st0" d="M445.5,381c0.1,0,0.3,0,0.4,0c0.4,0,0.9,0.1,1.3,0.2c0.4,0.1,0.8,0.3,1.2,0.4c0.4,0.2,0.8,0.4,1.1,0.7
			c0.4,0.3,0.7,0.6,1,0.9c0.3,0.3,0.6,0.7,0.8,1.1c0.2,0.4,0.4,0.8,0.6,1.2c0.1,0.4,0.3,0.9,0.3,1.3c0.1,0.5,0.1,0.9,0.1,1.3
			c0,0.4-0.1,0.9-0.2,1.3c-0.1,0.4-0.3,0.8-0.5,1.3c-0.2,0.4-0.4,0.7-0.7,1.1c-0.1,0.2-0.3,0.4-0.5,0.5c-0.2,0.2-0.3,0.3-0.5,0.5
			c-0.3,0.3-0.7,0.6-1.1,0.8c-13.8,8.1-26.4,17.9-37.6,29.3c-4.1,4.2-8.1,8.7-11.8,13.2c-0.2,0.3-0.4,0.5-0.6,0.8l-0.4,0.5
			c-3.4,4.3-6.6,8.7-9.4,13c-3.2,4.9-6.3,10-9,15.2c-0.5,1-1.1,2.1-1.6,3.1c-2.2,4.3-4.2,8.7-6,13c-2.1,5.1-4,10.5-5.7,15.9
			l-0.1,0.3c-0.1,0.2-0.1,0.3-0.2,0.5c-1.7,5.7-3.2,11.5-4.3,17.2c-0.5,2.4-0.9,5-1.4,7.7c-0.5,3.4-1,6.7-1.3,9.8
			c-0.6,5.9-0.9,11.8-1,17.7c0,0.4-0.1,0.9-0.2,1.3c-0.1,0.4-0.2,0.8-0.4,1.2c-0.2,0.4-0.4,0.8-0.6,1.1c-0.1,0.2-0.3,0.4-0.5,0.6
			c-0.1,0.1-0.3,0.3-0.4,0.4c-0.3,0.3-0.7,0.6-1,0.8c-0.4,0.2-0.8,0.4-1.1,0.6c-0.4,0.2-0.9,0.3-1.3,0.4c-0.4,0.1-0.9,0.1-1.3,0.1
			h-0.1c-0.4,0-0.9-0.1-1.3-0.1c-0.5-0.1-0.9-0.2-1.3-0.4c-0.4-0.2-0.8-0.4-1.2-0.6c-0.4-0.3-0.7-0.5-1-0.9c-0.3-0.3-0.6-0.7-0.8-1
			c-0.2-0.4-0.4-0.8-0.6-1.2c-0.2-0.4-0.3-0.8-0.4-1.3c-0.1-0.4-0.1-0.9-0.1-1.4c0-4.2,0.2-8.4,0.5-12.7c0.3-4.2,0.7-8.5,1.3-12.6
			c0.6-4.1,1.3-8.4,2.1-12.5c0.8-4.1,1.8-8.3,2.9-12.4c1.1-4.1,2.3-8.1,3.7-12.2c1.4-4,2.9-8,4.5-11.9c1.6-3.9,3.4-7.8,5.2-11.6
			c1.9-3.8,3.9-7.5,6-11.2c2.1-3.7,4.4-7.3,6.7-10.8c2.3-3.5,4.8-7,7.4-10.3c2.6-3.4,5.3-6.7,8-9.8c2.8-3.2,5.7-6.3,8.7-9.3
			c3-3,6.1-5.9,9.2-8.7c3.2-2.8,6.5-5.6,9.8-8.1c0,0,0,0,0.1,0c3.3-2.6,6.8-5.1,10.3-7.4c3.4-2.3,7.1-4.6,10.7-6.8
			c0.4-0.2,0.8-0.4,1.2-0.6c0.4-0.1,0.8-0.2,1.3-0.3C444.9,381,445.2,381,445.5,381 M445.5,376c-0.5,0-1.1,0-1.6,0.1
			c-0.8,0.1-1.5,0.3-2.2,0.5c-0.7,0.3-1.4,0.6-2.1,1c-3.8,2.2-7.4,4.5-11,7c-3.6,2.4-7.1,5-10.5,7.7c0,0,0,0,0,0c0,0,0,0,0,0
			c-3.4,2.7-6.8,5.4-10,8.3c-3.3,2.9-6.4,5.9-9.5,9c-3.1,3.1-6,6.3-8.9,9.5c-2.9,3.3-5.6,6.6-8.2,10.1c-2.6,3.5-5.2,7-7.6,10.6
			c-2.4,3.6-4.7,7.3-6.9,11.1c-2.2,3.8-4.2,7.6-6.1,11.5c-1.9,3.9-3.7,7.9-5.4,11.9c-1.7,4-3.2,8.1-4.6,12.2
			c-1.4,4.1-2.7,8.3-3.8,12.5c-1.1,4.2-2.1,8.4-3,12.7c-0.9,4.3-1.6,8.5-2.2,12.8c-0.6,4.3-1,8.6-1.3,13c-0.3,4.3-0.5,8.7-0.5,13
			c0,0.8,0.1,1.5,0.2,2.3c0.1,0.8,0.3,1.5,0.6,2.2c0.3,0.7,0.6,1.4,1.1,2.1c0.4,0.7,0.9,1.3,1.4,1.8c0.5,0.6,1.1,1.1,1.8,1.5
			c0.6,0.4,1.3,0.8,2,1.1c0.7,0.3,1.4,0.5,2.2,0.7c0.8,0.2,1.5,0.2,2.3,0.3h0.1c0.8,0,1.5-0.1,2.3-0.2c0.8-0.2,1.5-0.4,2.2-0.7
			c0.7-0.3,1.4-0.6,2-1.1c0.6-0.4,1.2-0.9,1.8-1.4c0.2-0.2,0.4-0.5,0.6-0.7c0.3-0.3,0.6-0.7,0.8-1.1c0.4-0.6,0.8-1.3,1.1-2
			c0.3-0.7,0.5-1.4,0.7-2.2c0.2-0.7,0.2-1.5,0.3-2.3c0-5.8,0.4-11.5,1-17.2c0.3-3.2,0.8-6.4,1.3-9.5c0.4-2.5,0.8-5,1.3-7.5
			c1.1-5.6,2.5-11.2,4.2-16.7c0.1-0.3,0.2-0.5,0.2-0.8c1.6-5.2,3.5-10.4,5.6-15.5c1.8-4.3,3.7-8.5,5.8-12.6c0.5-1,1-2,1.5-3
			c2.7-5.1,5.6-10,8.8-14.8c2.9-4.4,5.9-8.6,9.2-12.7c0.3-0.4,0.6-0.8,1-1.2c3.6-4.5,7.4-8.8,11.5-12.9
			c10.9-11.1,23.1-20.6,36.6-28.5c0.7-0.4,1.3-0.8,1.9-1.4c0.3-0.3,0.6-0.5,0.8-0.8c0.3-0.3,0.5-0.6,0.7-0.9c0.5-0.6,0.9-1.3,1.2-2
			c0.3-0.7,0.6-1.4,0.8-2.2c0.2-0.8,0.3-1.5,0.4-2.3c0-0.8,0-1.5-0.1-2.3c-0.1-0.8-0.3-1.5-0.5-2.2c-0.3-0.7-0.6-1.4-1-2.1
			c-0.4-0.7-0.8-1.3-1.4-1.9c-0.5-0.6-1.1-1.1-1.7-1.6c-0.6-0.5-1.3-0.9-2-1.2c-0.7-0.3-1.4-0.6-2.2-0.8c-0.8-0.2-1.5-0.3-2.3-0.4
			C446,376,445.8,376,445.5,376L445.5,376z"/>
	</g>
	<g>
		<path class="st0" d="M539.6,402.7l0.5,0c5.2,0,10.5,0.3,15.8,0.9c5.2,0.6,10.5,1.4,15.6,2.5c5.1,1.1,10.2,2.5,15.2,4.2
			c5,1.7,9.9,3.6,14.7,5.8c4.8,2.2,9.5,4.6,14,7.3c4.5,2.7,9,5.6,13.1,8.8c4.2,3.1,8.3,6.5,12.1,10.1c3.9,3.6,7.6,7.4,11,11.3
			c0,0,0.1,0.1,0.1,0.1c0.3,0.3,0.6,0.7,0.8,1.1c0.2,0.4,0.4,0.8,0.6,1.2c0.2,0.4,0.3,0.9,0.3,1.3c0,0.2,0.1,0.4,0.1,0.7
			c0,0.2,0,0.4,0,0.7c0,0.5-0.1,0.9-0.2,1.3c-0.1,0.4-0.3,0.9-0.5,1.3c-0.2,0.4-0.4,0.8-0.7,1.1c-0.3,0.4-0.6,0.7-0.9,1
			c-0.4,0.3-0.7,0.6-1.1,0.8c-0.4,0.2-0.8,0.4-1.2,0.5c-0.4,0.1-0.9,0.2-1.3,0.3c-0.3,0-0.5,0-0.8,0c-0.2,0-0.4,0-0.6,0
			c-0.5,0-0.9-0.1-1.3-0.2c-0.4-0.1-0.9-0.3-1.3-0.5c-0.4-0.2-0.8-0.5-1.1-0.8c-0.4-0.3-0.7-0.6-1-1c0,0-0.1-0.1-0.1-0.1
			c-3.1-3.6-6.5-7.1-10-10.3c-3.5-3.2-7.2-6.3-11-9.2c-3.8-2.9-7.8-5.5-11.9-8c-4.1-2.4-8.4-4.7-12.7-6.6c-4.3-2-8.8-3.7-13.4-5.2
			c-4.5-1.5-9.2-2.8-13.8-3.8c-4.7-1-9.4-1.8-14.2-2.3c-4.7-0.5-9.5-0.8-14.3-0.8l-0.5,0c-4.2,0-8.5,0.2-12.8,0.6
			c-4.4,0.4-8.8,1.1-13.1,1.9c-4.3,0.9-8.6,1.9-12.9,3.2c-4.2,1.3-8.4,2.8-12.5,4.5c-4.1,1.7-8.1,3.6-12,5.7
			c-3.9,2.1-7.7,4.4-11.3,6.9c-3.6,2.5-7.2,5.1-10.6,8c-3.4,2.8-6.7,5.9-9.8,9c-3.1,3.2-6.1,6.6-8.9,10.1c-2.8,3.5-5.5,7.2-7.9,10.9
			c-2.4,3.8-4.7,7.7-6.8,11.6c-2.1,4-4,8.1-5.6,12.3c-1.7,4.2-3.1,8.4-4.4,12.8c-1.2,4.3-2.3,8.7-3.1,13.1
			c-0.8,4.4-1.4,8.9-1.8,13.4c-0.4,4.4-0.6,8.9-0.5,13.4c-0.4,16.3-2.7,32.6-6.7,48.4c-4,15.8-9.9,31.2-17.4,45.7l-6.9,12.2
			c-0.3,0.5-0.7,1-1.1,1.3c-0.1,0.1-0.3,0.3-0.6,0.5c0,0-0.1,0.1-0.1,0.1c0,0,0,0,0,0c0,0-0.1,0.1-0.1,0.1c-0.3,0.3-0.7,0.5-1,0.7
			c-0.4,0.2-0.8,0.4-1.2,0.5c-0.4,0.1-0.9,0.2-1.3,0.3c-0.2,0-0.4,0-0.6,0c-0.2,0-0.5,0-0.7,0c-0.4-0.1-0.9-0.1-1.3-0.3
			c-0.4-0.1-0.9-0.3-1.2-0.5c-0.4-0.2-0.8-0.5-1.1-0.8c-0.3-0.3-0.6-0.6-0.9-1c-0.3-0.3-0.5-0.7-0.7-1.1c-0.2-0.4-0.4-0.8-0.5-1.3
			c-0.1-0.4-0.2-0.9-0.2-1.3c0-0.5,0-0.9,0.1-1.4c0.1-0.4,0.2-0.9,0.3-1.3c0.1-0.4,0.3-0.8,0.6-1.2c0-0.1,0.1-0.1,0.1-0.2l6.6-11.8
			c0-0.1,0.1-0.1,0.1-0.2c6.9-13.4,12.3-27.6,16.1-42.2c3.8-14.6,6-29.6,6.5-44.6c0-0.1,0-0.2,0-0.2c-0.1-4.9,0.1-9.9,0.5-14.8
			c0.1-1.2,0.2-2.5,0.4-3.8c0-0.2,0.1-0.4,0.1-0.7l0.1-0.6l0-0.4c0.1-0.7,0.2-1.4,0.3-2.1c0-0.2,0.1-0.5,0.1-0.7l0.1-0.6l0.1-0.5
			c0.1-0.6,0.2-1.3,0.3-1.9c0.1-0.9,0.3-1.8,0.5-2.6l0-0.1c0-0.2,0.1-0.3,0.1-0.5c0-0.1,0-0.3,0.1-0.4c0,0,0,0,0,0l0-0.1
			c0.1-0.4,0.2-0.8,0.2-1.2l0.1-0.7l0.1-0.6c0.1-0.4,0.2-0.8,0.2-1.1l0-0.2l0.1-0.3c0.3-1.2,0.5-2.2,0.7-3.2l0-0.2
			c0.3-1.2,0.6-2.3,0.9-3.4c0.1-0.3,0.2-0.7,0.3-1l0.2-0.6l0.2-0.6c0.1-0.4,0.2-0.8,0.4-1.3l0,0c0,0,0-0.1,0-0.1
			c0.1-0.5,0.3-1,0.4-1.4l0.2-0.6l0.2-0.6c0.1-0.3,0.2-0.6,0.3-0.9c0.1-0.2,0.1-0.4,0.2-0.6l0.2-0.5c1-3.2,2.2-6.3,3.4-9.3
			c0,0,0,0,0-0.1c0,0,0,0,0-0.1c0.8-2,1.7-4.1,2.7-6.2l0.1-0.3l0.1-0.2c0.1-0.3,0.3-0.6,0.4-0.9l0.3-0.6c0.9-1.9,1.7-3.6,2.5-5.2
			c1.8-3.4,3.7-6.8,5.8-10.2c0.7-1.1,1.2-1.9,1.7-2.7c0.5-0.7,1-1.4,1.4-2.1l0.1-0.1l0.3-0.4c0.1-0.1,0.2-0.3,0.3-0.4l0.1-0.1
			l0.1-0.2c1.4-2,2.8-3.9,4.2-5.7c0.7-1,1.5-2,2.3-2.9c3.1-3.8,6.4-7.6,9.9-11.1c3.4-3.5,7-6.8,10.7-9.9c3.7-3.1,7.6-6,11.6-8.8
			c4-2.7,8.2-5.2,12.5-7.6c4.3-2.3,8.7-4.4,13.2-6.3c4.5-1.9,9.1-3.5,13.7-4.9c4.6-1.4,9.4-2.6,14.1-3.6c4.7-0.9,9.6-1.7,14.4-2.1
			C530.2,402.9,534.9,402.7,539.6,402.7 M402.9,496L402.9,496L402.9,496 M539.6,397.7c-4.9,0-9.7,0.2-14.6,0.7
			c-5,0.5-10,1.2-14.9,2.2c-4.9,1-9.8,2.2-14.6,3.7c-4.8,1.5-9.5,3.2-14.2,5.1c-4.6,1.9-9.2,4.1-13.6,6.5c-4.4,2.4-8.7,5-12.9,7.8
			c-4.2,2.8-8.2,5.8-12,9.1c-3.9,3.2-7.6,6.6-11.1,10.2c-3.6,3.7-7,7.5-10.2,11.5c-0.8,1-1.6,2-2.4,3c-1.5,1.9-2.9,3.9-4.3,5.9
			c-0.1,0.1-0.1,0.2-0.2,0.3c-0.2,0.3-0.4,0.6-0.6,0.9c-0.5,0.8-1.1,1.5-1.6,2.3c-0.6,0.9-1.2,1.9-1.8,2.8c-2.1,3.4-4.1,6.9-6,10.5
			c-0.9,1.8-1.8,3.5-2.6,5.3c-0.2,0.5-0.5,1-0.7,1.6c-0.1,0.2-0.2,0.4-0.2,0.6c-1,2.1-1.9,4.3-2.8,6.5c0,0,0,0,0,0c0,0,0,0,0,0
			c-1.3,3.2-2.4,6.4-3.5,9.6c-0.1,0.4-0.3,0.8-0.4,1.2c-0.2,0.5-0.3,1-0.5,1.5c-0.2,0.7-0.4,1.4-0.6,2.1c0,0,0,0,0,0c0,0,0,0,0,0
			c-0.2,0.7-0.4,1.3-0.6,2c-0.2,0.6-0.3,1.1-0.5,1.7c-0.3,1.2-0.6,2.3-0.9,3.5c0,0.1,0,0.1,0,0.2c-0.3,1.1-0.5,2.2-0.7,3.2
			c0,0.2-0.1,0.3-0.1,0.5c-0.1,0.6-0.2,1.2-0.4,1.8c-0.1,0.6-0.3,1.3-0.4,1.9c0,0,0,0.1,0,0.1c0,0,0,0,0,0c-0.1,0.3-0.1,0.6-0.2,0.9
			c-0.2,0.9-0.3,1.9-0.5,2.8c-0.1,0.8-0.2,1.6-0.4,2.4c-0.1,0.5-0.1,0.9-0.2,1.4c-0.1,0.9-0.2,1.7-0.3,2.6c0,0.4-0.1,0.8-0.2,1.3
			c-0.1,1.3-0.3,2.6-0.4,3.9c-0.4,5.1-0.6,10.2-0.6,15.2c-0.5,14.8-2.6,29.3-6.3,43.6c-3.7,14.3-8.9,28-15.7,41.1l-6.6,11.8
			c-0.4,0.7-0.8,1.4-1,2.1c-0.3,0.7-0.5,1.5-0.6,2.3c-0.1,0.8-0.2,1.6-0.1,2.4c0,0.8,0.2,1.6,0.4,2.3c0.2,0.8,0.5,1.5,0.8,2.2
			c0.3,0.7,0.8,1.4,1.2,2c0.5,0.6,1,1.2,1.6,1.7c0.6,0.5,1.2,1,1.9,1.4c0.7,0.4,1.4,0.7,2.2,0.9c0.8,0.2,1.5,0.4,2.3,0.5
			c0.4,0,0.9,0.1,1.3,0.1c0.4,0,0.7,0,1.1,0c0.8-0.1,1.6-0.2,2.3-0.4c0.8-0.2,1.5-0.5,2.2-0.9c0.6-0.3,1.2-0.7,1.8-1.2
			c0,0,0.1-0.1,0.1-0.1c0,0,0,0,0.1,0c0,0,0.1-0.1,0.1-0.1c0.3-0.3,0.6-0.5,0.9-0.8c0.7-0.7,1.4-1.5,1.9-2.4l6.9-12.4
			c7.7-14.9,13.6-30.5,17.8-46.8c4.2-16.3,6.5-32.8,6.9-49.6c-0.1-4.3,0.1-8.7,0.5-13c0.4-4.3,1-8.6,1.8-12.9
			c0.8-4.3,1.8-8.5,3-12.6c1.2-4.2,2.6-8.3,4.2-12.3c1.6-4,3.4-8,5.4-11.8c2-3.8,4.2-7.6,6.5-11.2c2.4-3.6,4.9-7.1,7.6-10.5
			c2.7-3.4,5.6-6.6,8.6-9.7c3-3,6.1-5.9,9.4-8.7c3.3-2.7,6.7-5.3,10.2-7.7c3.5-2.4,7.2-4.6,10.9-6.6c3.8-2,7.6-3.9,11.5-5.5
			c3.9-1.6,7.9-3.1,12-4.3c4.1-1.2,8.2-2.3,12.4-3.1c4.2-0.8,8.4-1.4,12.6-1.9c4.1-0.4,8.2-0.6,12.3-0.6c0.2,0,0.3,0,0.5,0
			c4.6,0,9.2,0.2,13.8,0.7c4.6,0.5,9.1,1.2,13.6,2.2c4.5,1,8.9,2.2,13.3,3.7c4.4,1.5,8.7,3.1,12.9,5c4.2,1.9,8.3,4,12.2,6.4
			c4,2.3,7.8,4.9,11.5,7.7c3.7,2.8,7.2,5.7,10.6,8.8c3.4,3.1,6.6,6.4,9.6,9.9c0.5,0.6,1.1,1.2,1.7,1.7c0.6,0.5,1.3,0.9,2,1.3
			c0.7,0.4,1.4,0.7,2.2,0.9c0.8,0.2,1.5,0.4,2.3,0.4c0.3,0,0.7,0,1,0c0.4,0,0.9,0,1.3-0.1c0.8-0.1,1.6-0.3,2.3-0.5
			c0.8-0.2,1.5-0.6,2.2-0.9c0.7-0.4,1.3-0.8,1.9-1.4c0.6-0.5,1.1-1.1,1.6-1.7c0.5-0.6,0.9-1.3,1.2-2c0.3-0.7,0.6-1.4,0.8-2.2
			c0.2-0.8,0.3-1.5,0.4-2.3c0-0.4,0-0.8,0-1.2c0-0.4-0.1-0.8-0.1-1.2c-0.1-0.8-0.3-1.5-0.6-2.3c-0.3-0.7-0.6-1.4-1-2.1
			s-0.9-1.3-1.4-1.9c-3.6-4.1-7.4-8-11.4-11.7c-4-3.7-8.2-7.2-12.5-10.4c-4.4-3.3-8.9-6.3-13.6-9.1s-9.5-5.3-14.5-7.6
			c-5-2.3-10-4.2-15.2-6s-10.4-3.2-15.7-4.3c-5.3-1.2-10.7-2-16.1-2.6c-5.4-0.6-10.9-0.9-16.3-0.9
			C539.9,397.7,539.8,397.7,539.6,397.7L539.6,397.7z"/>
	</g>
	<g>
		<path class="st0" d="M540,450.7c1.3,0,2.7,0,4,0.1c1.6,0.1,3.3,0.2,4.9,0.3c1.7,0.2,3.4,0.3,4.9,0.6c1.7,0.2,3.3,0.5,4.9,0.8
			c1.6,0.3,3.2,0.7,4.8,1c1.5,0.4,3.2,0.8,4.8,1.3c1.6,0.5,3.2,1,4.7,1.5c1.5,0.5,3.1,1.1,4.6,1.7c1.5,0.6,3,1.3,4.5,2
			c1.5,0.7,3,1.4,4.5,2.2c1.5,0.8,2.9,1.6,4.3,2.4c1.4,0.8,2.8,1.7,4.2,2.6c1.5,1,2.8,1.9,4.1,2.8c1.3,1,2.6,2,3.9,3
			c1.3,1,2.6,2.1,3.8,3.2c1.2,1.1,2.4,2.2,3.6,3.4c1.2,1.2,2.4,2.4,3.5,3.5c1.1,1.2,2.2,2.4,3.3,3.7c1,1.2,2.1,2.5,3.1,3.9
			c1,1.3,2,2.7,2.9,4c0.9,1.4,1.8,2.7,2.7,4.2c0.9,1.4,1.7,2.8,2.5,4.3c0.8,1.4,1.5,2.9,2.3,4.4c0.8,1.6,1.4,3,2.1,4.5
			c0.6,1.4,1.2,2.9,1.8,4.6c0.6,1.5,1.1,3.1,1.6,4.7c0.5,1.5,0.9,3.1,1.4,4.8c0.4,1.6,0.8,3.2,1.1,4.8c0.3,1.6,0.6,3.2,0.9,4.9
			c0.3,1.7,0.5,3.3,0.7,4.9c0.2,1.7,0.3,3.3,0.4,4.9c0.1,1.6,0.2,3.2,0.2,5c0.5,26.3,2.7,52.8,6.7,78.9c4,26,9.8,52.1,17.2,77.3
			c0,0,0,0.1,0,0.1l10.9,35c0.1,0.4,0.2,0.8,0.3,1.3c0,0.4,0,0.9,0,1.3c0,0.4-0.1,0.9-0.2,1.3c-0.1,0.4-0.3,0.8-0.5,1.2
			c-0.2,0.4-0.4,0.8-0.7,1.1c-0.3,0.4-0.6,0.7-0.9,1c-0.3,0.3-0.7,0.5-1.1,0.7c-0.4,0.2-0.8,0.4-1.2,0.5c-0.7,0.2-1.3,0.3-2,0.3
			c0,0-0.1,0-0.1,0c-0.7,0-1.4-0.1-2.1-0.3c-0.7-0.2-1.3-0.5-1.9-1c-0.6-0.4-1.1-0.9-1.5-1.5c-0.4-0.6-0.7-1.2-1-1.9L652,711.2
			c-7.6-25.9-13.5-52.6-17.6-79.3c-4.1-26.7-6.4-54-6.9-81c0-2.8-0.2-5.7-0.5-8.5c-0.3-2.8-0.7-5.7-1.3-8.5
			c-0.6-2.8-1.3-5.6-2.2-8.3c-0.8-2.7-1.8-5.4-3-8.1c-1.1-2.6-2.4-5.2-3.7-7.7c-1.4-2.5-2.9-5-4.5-7.3c-1.6-2.3-3.3-4.6-5.2-6.8
			c-1.8-2.2-3.8-4.3-5.8-6.3c-2-2-4.2-3.9-6.4-5.7c-2.2-1.8-4.6-3.5-6.9-5c-2.4-1.6-4.9-3-7.4-4.3c-2.5-1.3-5.1-2.5-7.8-3.6
			c-2.6-1.1-5.3-2-8.1-2.8c-2.7-0.8-5.5-1.5-8.3-2c-2.8-0.5-5.7-0.9-8.5-1.2c-2.6-0.2-5.3-0.4-7.9-0.4c-0.2,0-0.5,0-0.7,0
			c-2.9,0-5.8,0.2-8.6,0.5c-2.8,0.3-5.7,0.8-8.5,1.3c-2.8,0.6-5.6,1.3-8.3,2.2c-2.7,0.8-5.4,1.8-8,3c-2.6,1.1-5.2,2.4-7.7,3.7
			c-2.5,1.4-5,2.9-7.3,4.5c-2.4,1.6-4.7,3.4-6.9,5.2c-2.2,1.8-4.3,3.8-6.3,5.8c-2,2-3.9,4.2-5.7,6.4c-1.8,2.2-3.5,4.6-5,6.9
			c-1.6,2.4-3,4.9-4.3,7.4c-1.3,2.5-2.5,5.2-3.6,7.8c-1.1,2.6-2,5.4-2.8,8.1c-0.8,2.7-1.5,5.5-2,8.3c-0.5,2.8-0.9,5.6-1.2,8.5
			c-0.3,2.7-0.4,5.6-0.3,8.5c-0.4,11.5-1.5,23.1-3.3,34.6c-0.5,3-0.9,5.7-1.4,8.1c-0.5,2.5-1,5.1-1.6,8.1
			c-1.4,6.7-3.2,13.5-5.1,20.1c-1.3,4.6-2.8,9.1-4.2,13.3c-0.6,1.7-1.2,3.4-1.8,5.1c-2.6,7.2-5.6,14.5-8.9,21.7
			c-2,4.4-4.1,8.7-6.2,12.8c-1.4,2.8-3,5.6-4.7,8.6c-5.4,9.7-11.5,19.1-18,28c0,0,0,0.1-0.1,0.1c-0.3,0.4-0.6,0.7-0.9,1
			c-0.3,0.3-0.7,0.6-1.1,0.8c-0.4,0.2-0.8,0.4-1.2,0.6c-0.4,0.2-0.9,0.3-1.3,0.4c-0.4,0.1-0.8,0.1-1.2,0.1l-0.1,0
			c-0.5,0-0.9-0.1-1.3-0.2c-0.4-0.1-0.8-0.2-1.2-0.4c-0.4-0.2-0.8-0.4-1.1-0.6c-0.4-0.3-0.7-0.6-1-0.9c-0.3-0.3-0.6-0.7-0.8-1
			c-0.3-0.4-0.5-0.8-0.6-1.2c-0.2-0.4-0.3-0.8-0.4-1.3c-0.1-0.4-0.1-0.9-0.1-1.3c0-0.4,0.1-0.9,0.2-1.3c0.1-0.4,0.2-0.8,0.4-1.2
			c0.2-0.4,0.4-0.8,0.6-1.1c8-11,15.2-22.7,21.4-34.7c6.3-12,11.7-24.6,16.2-37.5c4.5-12.8,8-26.1,10.5-39.4
			c2.5-13.4,4.1-27,4.7-40.5c0-0.1,0-0.2,0-0.3c0-1.6,0-3.3,0.1-5c0.1-1.7,0.2-3.3,0.3-4.9c0.1-1.6,0.3-3.3,0.6-4.9
			c0.2-1.6,0.5-3.2,0.8-4.9c0.3-1.6,0.6-3.2,1-4.8c0.4-1.6,0.8-3.3,1.3-4.8c0.4-1.5,1-3.1,1.5-4.7c0.5-1.5,1.1-3.1,1.7-4.6
			c0.6-1.5,1.3-3,2-4.5c0.7-1.5,1.4-3,2.2-4.4c0.8-1.5,1.6-2.9,2.4-4.3c0.8-1.4,1.7-2.8,2.6-4.2c0.9-1.4,1.9-2.8,2.8-4.1
			c1-1.3,2-2.6,3-3.9c1-1.3,2.1-2.6,3.2-3.8c1.1-1.2,2.2-2.4,3.4-3.6c1.2-1.2,2.4-2.3,3.5-3.4c1.3-1.2,2.5-2.3,3.7-3.3
			c1.3-1.1,2.6-2.1,3.9-3.1c1.3-1,2.7-2,4-2.9c1.3-0.9,2.7-1.8,4.2-2.7c1.4-0.9,2.9-1.7,4.3-2.5c1.4-0.8,2.8-1.5,4.4-2.3
			c1.4-0.7,2.9-1.4,4.5-2c1.5-0.7,3.1-1.3,4.6-1.8c1.5-0.6,3.1-1.1,4.7-1.6c1.5-0.5,3.1-0.9,4.8-1.4c1.6-0.4,3.2-0.8,4.8-1.1
			c1.6-0.3,3.3-0.6,4.9-0.9c1.6-0.3,3.3-0.5,4.9-0.7c1.7-0.2,3.3-0.3,4.9-0.4c1.6-0.1,3.3-0.2,4.9-0.2
			C539.4,450.7,539.7,450.7,540,450.7 M540,445.7c-0.3,0-0.7,0-1,0c-1.7,0-3.5,0.1-5.2,0.2c-1.7,0.1-3.5,0.2-5.2,0.4
			c-1.7,0.2-3.4,0.4-5.2,0.7c-1.7,0.3-3.4,0.6-5.1,0.9c-1.7,0.4-3.4,0.8-5.1,1.2c-1.7,0.4-3.3,0.9-5,1.4c-1.7,0.5-3.3,1.1-4.9,1.7
			c-1.6,0.6-3.2,1.2-4.8,1.9c-1.6,0.7-3.2,1.4-4.7,2.2c-1.6,0.8-3.1,1.6-4.6,2.4c-1.5,0.8-3,1.7-4.5,2.6s-2.9,1.8-4.4,2.8
			c-1.4,1-2.8,2-4.2,3c-1.4,1-2.7,2.1-4.1,3.2c-1.3,1.1-2.6,2.3-3.9,3.4c-1.3,1.2-2.5,2.4-3.7,3.6c-1.2,1.2-2.4,2.5-3.5,3.8
			c-1.2,1.3-2.3,2.6-3.4,4c-1.1,1.4-2.1,2.7-3.2,4.1c-1,1.4-2,2.8-3,4.3c-0.9,1.5-1.9,2.9-2.7,4.4c-0.9,1.5-1.7,3-2.5,4.5
			c-0.8,1.5-1.6,3.1-2.3,4.7c-0.7,1.6-1.4,3.2-2.1,4.8c-0.6,1.6-1.3,3.2-1.8,4.9c-0.6,1.6-1.1,3.3-1.6,4.9c-0.5,1.7-0.9,3.3-1.3,5
			c-0.4,1.7-0.8,3.4-1.1,5.1c-0.3,1.7-0.6,3.4-0.8,5.1c-0.2,1.7-0.4,3.4-0.6,5.2c-0.2,1.7-0.3,3.5-0.3,5.2c-0.1,1.7-0.1,3.5-0.1,5.2
			c-0.6,13.4-2.1,26.7-4.6,39.8c-2.5,13.2-6,26.1-10.4,38.7c-4.4,12.7-9.7,24.9-15.9,36.8c-6.2,11.9-13.2,23.2-21.1,34.1
			c-0.4,0.6-0.8,1.3-1.1,2c-0.3,0.7-0.5,1.4-0.7,2.2c-0.2,0.8-0.3,1.5-0.3,2.3c0,0.8,0,1.5,0.2,2.3c0.1,0.8,0.3,1.5,0.6,2.2
			c0.3,0.7,0.6,1.4,1.1,2.1c0.4,0.6,0.9,1.2,1.4,1.8c0.5,0.6,1.1,1.1,1.8,1.5c0.6,0.4,1.3,0.8,2,1.1c0.7,0.3,1.4,0.5,2.2,0.7
			c0.8,0.2,1.5,0.2,2.3,0.3c0.1,0,0.2,0,0.2,0c0.7,0,1.4-0.1,2.1-0.2c0.8-0.1,1.5-0.3,2.2-0.6s1.4-0.6,2.1-1.1
			c0.7-0.4,1.3-0.9,1.8-1.4c0.6-0.5,1.1-1.1,1.5-1.8c6.7-9.2,12.8-18.7,18.3-28.5c1.6-2.9,3.2-5.8,4.7-8.7c2.2-4.3,4.3-8.6,6.4-13
			c3.3-7.2,6.4-14.6,9.1-22c0.6-1.7,1.2-3.4,1.8-5.2c1.5-4.5,3-9,4.3-13.6c2-6.8,3.7-13.6,5.2-20.5c0.6-2.7,1.2-5.5,1.7-8.3
			c0.5-2.7,1-5.5,1.4-8.2c1.8-11.7,2.9-23.4,3.3-35.3c0-2.7,0.1-5.4,0.3-8.1c0.2-2.7,0.6-5.4,1.1-8c0.5-2.7,1.1-5.3,1.9-7.9
			c0.8-2.6,1.6-5.1,2.7-7.6c1-2.5,2.1-4.9,3.4-7.3c1.3-2.4,2.6-4.7,4.1-7c1.5-2.3,3.1-4.4,4.8-6.5c1.7-2.1,3.5-4.1,5.4-6
			c1.9-1.9,3.9-3.8,5.9-5.5c2.1-1.7,4.2-3.3,6.5-4.9c2.2-1.5,4.5-2.9,6.9-4.2c2.4-1.3,4.8-2.5,7.3-3.5c2.5-1.1,5-2,7.6-2.8
			c2.6-0.8,5.2-1.5,7.8-2c2.6-0.5,5.3-1,8-1.3c2.7-0.3,5.4-0.4,8.1-0.5c0.2,0,0.4,0,0.6,0c2.5,0,5,0.1,7.4,0.3
			c2.7,0.2,5.4,0.6,8,1.1c2.7,0.5,5.3,1.1,7.9,1.9c2.6,0.8,5.1,1.6,7.6,2.7c2.5,1,4.9,2.1,7.3,3.4c2.4,1.2,4.7,2.6,7,4.1
			c2.3,1.5,4.4,3.1,6.5,4.8c2.1,1.7,4.1,3.5,6,5.4c1.9,1.9,3.8,3.9,5.5,5.9c1.7,2.1,3.4,4.2,4.9,6.5c1.5,2.2,2.9,4.5,4.2,6.9
			c1.3,2.4,2.5,4.8,3.5,7.3c1.1,2.5,2,5,2.8,7.6c0.8,2.6,1.5,5.2,2,7.8c0.5,2.6,1,5.3,1.2,8c0.3,2.7,0.4,5.4,0.5,8.1
			c0.5,27.4,2.8,54.6,6.9,81.7c4.1,27.1,10.1,53.7,17.8,80l10.9,34.9c0.4,1.2,0.9,2.3,1.7,3.3c0.7,1,1.6,1.9,2.6,2.7
			c1,0.7,2.1,1.3,3.3,1.7c1.2,0.4,2.4,0.6,3.6,0.6c0,0,0,0,0,0c0,0,0,0,0.1,0c1.2,0,2.4-0.2,3.5-0.5c0.7-0.2,1.4-0.5,2.1-0.9
			c0.7-0.4,1.3-0.8,1.9-1.3c0.6-0.5,1.1-1,1.6-1.6c0.5-0.6,0.9-1.2,1.3-1.9c0.4-0.7,0.7-1.4,0.9-2.1c0.2-0.7,0.4-1.5,0.4-2.3
			c0.1-0.8,0.1-1.5,0-2.3c-0.1-0.8-0.2-1.5-0.5-2.3l-10.9-35c-7.4-25.2-13.1-50.7-17.1-76.7c-4-25.9-6.2-52-6.7-78.3
			c0-1.7-0.1-3.5-0.2-5.2c-0.1-1.7-0.2-3.5-0.4-5.2c-0.2-1.7-0.4-3.4-0.7-5.2c-0.3-1.7-0.6-3.4-0.9-5.1c-0.4-1.7-0.8-3.4-1.2-5.1
			c-0.4-1.7-0.9-3.3-1.4-5c-0.5-1.7-1.1-3.3-1.7-4.9c-0.6-1.6-1.2-3.2-1.9-4.8c-0.7-1.6-1.4-3.2-2.2-4.7c-0.8-1.6-1.5-3.1-2.4-4.6
			c-0.8-1.5-1.7-3-2.6-4.5c-0.9-1.5-1.8-2.9-2.8-4.4c-1-1.4-2-2.8-3-4.2c-1-1.4-2.1-2.7-3.2-4.1s-2.3-2.6-3.4-3.9
			c-1.2-1.3-2.4-2.5-3.6-3.7c-1.2-1.2-2.5-2.4-3.8-3.5s-2.6-2.3-4-3.4c-1.3-1.1-2.7-2.1-4.1-3.2c-1.4-1-2.8-2-4.3-3
			c-1.5-0.9-2.9-1.9-4.4-2.7c-1.5-0.9-3-1.7-4.5-2.5c-1.5-0.8-3.1-1.6-4.7-2.3c-1.6-0.7-3.2-1.4-4.8-2.1c-1.6-0.6-3.2-1.3-4.9-1.8
			c-1.6-0.6-3.3-1.1-4.9-1.6c-1.7-0.5-3.3-0.9-5-1.3c-1.7-0.4-3.4-0.8-5.1-1.1s-3.4-0.6-5.1-0.8c-1.7-0.2-3.4-0.4-5.2-0.6
			c-1.7-0.2-3.5-0.3-5.2-0.3C542.8,445.8,541.4,445.7,540,445.7L540,445.7z"/>
	</g>
	<g>
		<path class="st0" d="M540.5,543.8c0.2,0,0.5,0,0.7,0c0.4,0.1,0.9,0.1,1.3,0.3c0.4,0.1,0.8,0.3,1.2,0.5c0.4,0.2,0.7,0.5,1,0.8
			c0.3,0.3,0.6,0.6,0.8,0.9c0.3,0.4,0.5,0.7,0.6,1.1c0.2,0.4,0.3,0.8,0.4,1.3c0.1,0.4,0.1,0.8,0.1,1.3c0,2,0,4.1,0,6.1
			c-0.1,14.2-1.4,28.4-3.9,42.4c0,0,0,0,0,0.1c0,0.2-0.1,0.3-0.1,0.5c0,0,0,0.1,0,0.1c0,0,0,0,0,0.1c-0.1,0.2-0.1,0.4-0.2,0.5
			c-0.1,0.4-0.3,0.7-0.5,1.1c-0.2,0.4-0.4,0.7-0.7,1c0,0,0,0,0,0c-0.2,0.3-0.5,0.6-0.8,0.8c-0.3,0.3-0.7,0.5-1,0.7
			c-0.3,0.2-0.7,0.4-1,0.5c-0.4,0.1-0.8,0.3-1.2,0.3c-0.4,0.1-0.8,0.1-1.2,0.1c-0.4,0-0.8,0-1.1-0.1c-0.4-0.1-0.9-0.2-1.3-0.3
			c-0.4-0.1-0.8-0.3-1.2-0.6c-0.4-0.2-0.7-0.5-1.1-0.8c-0.3-0.3-0.6-0.6-0.9-1c-0.3-0.4-0.5-0.7-0.7-1.1c-0.2-0.4-0.3-0.9-0.4-1.3
			c-0.1-0.4-0.2-0.9-0.2-1.3c0-0.4,0-0.8,0.1-1.3c2.6-15,3.9-30.3,3.8-45.6c0-0.1,0-0.1,0-0.2c0-0.5,0-0.9,0.1-1.3
			c0.1-0.4,0.2-0.9,0.3-1.3c0.2-0.4,0.3-0.8,0.6-1.2c0.2-0.4,0.5-0.7,0.8-1c0.3-0.3,0.6-0.6,1-0.9c0.3-0.3,0.7-0.5,1.1-0.7
			c0.4-0.2,0.8-0.3,1.2-0.4c0.4-0.1,0.9-0.2,1.3-0.2c0.1,0,0.1,0,0.2,0C540.1,543.8,540.3,543.8,540.5,543.8 M540.5,538.8
			c-0.3,0-0.7,0-1,0c-0.8,0-1.5,0.1-2.3,0.3s-1.5,0.4-2.2,0.8c-0.7,0.3-1.4,0.7-2,1.2c-0.6,0.5-1.2,1-1.7,1.5
			c-0.5,0.6-1,1.2-1.4,1.8c-0.4,0.7-0.7,1.3-1,2.1c-0.3,0.7-0.5,1.5-0.6,2.2c-0.1,0.8-0.2,1.5-0.1,2.3c0.1,15-1.1,29.9-3.7,44.7
			c-0.1,0.8-0.2,1.5-0.1,2.3c0,0.8,0.1,1.5,0.3,2.3c0.2,0.8,0.4,1.5,0.8,2.2c0.3,0.7,0.7,1.4,1.2,2s1,1.2,1.5,1.7
			c0.6,0.5,1.2,1,1.8,1.4c0.7,0.4,1.3,0.7,2.1,1c0.7,0.3,1.5,0.5,2.2,0.6c0.6,0.1,1.3,0.1,1.9,0.1c0.7,0,1.4-0.1,2.1-0.2
			c0.7-0.1,1.3-0.3,2-0.5c0.7-0.2,1.3-0.5,1.9-0.9c0.6-0.4,1.2-0.8,1.7-1.2c0.5-0.5,1-0.9,1.4-1.5c0.4-0.5,0.8-1.1,1.2-1.7
			c0.3-0.6,0.6-1.2,0.8-1.9c0.1-0.3,0.2-0.6,0.3-0.9c0,0,0-0.1,0-0.1c0-0.1,0-0.1,0-0.2c0.1-0.3,0.1-0.6,0.2-0.8
			c2.5-14.3,3.8-28.7,4-43.2c0-2.1,0-4.1,0-6.2c0-0.8-0.1-1.6-0.2-2.3c-0.2-0.8-0.4-1.5-0.7-2.2c-0.3-0.7-0.7-1.4-1.2-2
			c-0.5-0.6-1-1.2-1.6-1.7c-0.6-0.5-1.2-1-1.9-1.4c-0.7-0.4-1.4-0.7-2.1-1c-0.7-0.2-1.5-0.4-2.3-0.5
			C541.4,538.8,540.9,538.8,540.5,538.8L540.5,538.8z"/>
	</g>
	<g>
		<path class="st0" d="M525.4,638.3c0.2,0,0.4,0,0.6,0c0.5,0,0.9,0.1,1.3,0.2c0.4,0.1,0.8,0.3,1.2,0.5c0.4,0.2,0.8,0.4,1.1,0.7
			c0.3,0.3,0.7,0.6,0.9,0.9c0.3,0.3,0.5,0.7,0.7,1.1c0.2,0.4,0.4,0.8,0.5,1.2c0.1,0.4,0.2,0.8,0.3,1.2c0,0,0,0.1,0,0.1
			c0,0,0,0,0,0.1c0,0,0,0.1,0,0.1c0,0.4,0.1,0.9,0,1.3c0,0.4-0.1,0.8-0.2,1.2c-7.8,26.2-18.2,51.7-31,75.8
			c-12.7,24.2-27.9,47.2-45,68.5c-0.7,0.8-1.4,1.4-2.4,1.9c-0.9,0.4-1.9,0.7-2.9,0.7c-0.2,0-0.3,0-0.6,0c0,0-0.1,0-0.1,0
			c-0.1,0-0.3,0-0.5-0.1c-0.1,0-0.1,0-0.2,0l0,0l-0.2,0l-0.2,0c-0.1,0-0.1,0-0.1,0c-0.5-0.1-0.9-0.3-1.3-0.5
			c-0.4-0.2-0.8-0.4-1.1-0.7c-0.4-0.3-0.7-0.6-1-0.9c-0.3-0.3-0.5-0.7-0.7-1.1c-0.2-0.4-0.4-0.8-0.5-1.2c-0.1-0.4-0.2-0.9-0.3-1.3
			c0-0.4-0.1-0.9,0-1.3c0-0.5,0.1-0.9,0.2-1.3c0.1-0.5,0.3-0.9,0.5-1.3c0.2-0.4,0.4-0.7,0.7-1.1c16.6-20.6,31.3-42.9,43.6-66.3
			c12.3-23.4,22.4-48.1,30-73.5c0.1-0.4,0.3-0.8,0.5-1.2c0.2-0.4,0.5-0.8,0.7-1.1c0.3-0.4,0.6-0.7,0.9-1c0.3-0.3,0.7-0.5,1.1-0.7
			c0.4-0.2,0.8-0.4,1.2-0.5c0.4-0.1,0.9-0.2,1.3-0.3C524.9,638.3,525.1,638.3,525.4,638.3 M525.4,633.3c-0.4,0-0.8,0-1.3,0.1
			c-0.8,0.1-1.5,0.2-2.3,0.5c-0.7,0.2-1.4,0.5-2.1,0.9c-0.7,0.4-1.3,0.8-1.9,1.3c-0.6,0.5-1.1,1-1.6,1.6c-0.5,0.6-0.9,1.2-1.3,1.9
			c-0.4,0.7-0.6,1.4-0.9,2.1c-7.5,25.2-17.4,49.3-29.6,72.6c-12.2,23.2-26.6,45.1-43.1,65.5c-0.5,0.6-0.9,1.2-1.3,1.9
			c-0.4,0.7-0.6,1.4-0.9,2.1c-0.2,0.7-0.4,1.5-0.4,2.3c-0.1,0.8-0.1,1.5,0,2.3c0.1,0.8,0.2,1.5,0.5,2.3c0.2,0.7,0.5,1.4,0.9,2.1
			c0.4,0.7,0.8,1.3,1.3,1.9c0.5,0.6,1,1.1,1.7,1.6c0.6,0.5,1.2,0.9,1.9,1.3c0.7,0.4,1.4,0.6,2.1,0.9c0.2,0.1,0.4,0.1,0.7,0.2
			c0.1,0,0.2,0.1,0.3,0.1c0.1,0,0.3,0,0.4,0.1c0.3,0,0.5,0.1,0.8,0.1c0,0,0.1,0,0.1,0c0,0,0,0,0.1,0c0.3,0,0.7,0,1,0
			c1.8,0,3.5-0.4,5.1-1.2c1.6-0.8,3-1.8,4.1-3.2c17.4-21.6,32.6-44.7,45.6-69.3c12.9-24.6,23.4-50.2,31.3-76.8
			c0.2-0.7,0.3-1.5,0.4-2.2c0.1-0.8,0-1.5,0-2.3c0,0,0,0,0,0c0,0,0,0,0,0c-0.1-0.8-0.2-1.5-0.5-2.3c-0.2-0.7-0.5-1.4-0.9-2.1
			c-0.4-0.7-0.8-1.3-1.3-1.9c-0.5-0.6-1-1.1-1.6-1.6c-0.6-0.5-1.2-0.9-1.9-1.3c-0.7-0.4-1.4-0.7-2.1-0.9s-1.5-0.4-2.3-0.4
			C526.1,633.3,525.7,633.3,525.4,633.3L525.4,633.3z"/>
	</g>
</g>
</svg>
