<?xml version="1.0" encoding="utf-8"?>
<!-- Generator: Adobe Illustrator 26.4.1, SVG Export Plug-In . SVG Version: 6.00 Build 0)  -->
<svg version="1.1" id="Ebene_1" xmlns="http://www.w3.org/2000/svg" xmlns:xlink="http://www.w3.org/1999/xlink" x="0px" y="0px"
	 viewBox="0 0 1080 1080" style="enable-background:new 0 0 1080 1080;" xml:space="preserve">
<style type="text/css">
	.st0{fill:#E11D6B;}
</style>
<g>
	<path class="st0" d="M540,281.9l222,92.5l-222,92.5l-222-92.5L540,281.9 M798.5,417.5v282L566.9,796V514L798.5,417.5 M282.5,420.5
		L514,517V799l-231.5-96.5V420.5 M296.4,692.5c0.6,0,1.1-0.1,1.7-0.3L425.6,646c1-0.4,1.9-1.1,2.5-2l74.3-113.4
		c1.2-1.8,1.1-4.2-0.3-5.8c-1-1.2-2.4-1.9-3.9-1.9c-0.6,0-1.1,0.1-1.7,0.3L369,569.4c-1,0.4-1.9,1.1-2.5,2l-74.3,113.4
		c-1.2,1.8-1.1,4.2,0.3,5.8C293.4,691.8,294.9,692.5,296.4,692.5 M370.2,603.2l25.2,31.8L335,656.9L370.2,603.2 M540,276.5
		l-235,97.9l235,97.9l235-97.9L540,276.5L540,276.5z M803.5,410L561.9,510.7v292.8l241.5-100.6V410L803.5,410z M277.5,413v292.8
		L519,806.5V513.7L277.5,413L277.5,413z M498.1,527.9l-74.3,113.4l-127.5,46.2l74.3-113.4L498.1,527.9L498.1,527.9z M369.8,594.6
		l-47.2,72.1l81-29.4L369.8,594.6L369.8,594.6z"/>
</g>
</svg>
