<?xml version="1.0" encoding="utf-8"?>
<!-- Generator: Adobe Illustrator 26.5.0, SVG Export Plug-In . SVG Version: 6.00 Build 0)  -->
<svg version="1.1" id="Ebene_1" xmlns="http://www.w3.org/2000/svg" xmlns:xlink="http://www.w3.org/1999/xlink" x="0px" y="0px"
	 viewBox="0 0 1080 1080" style="enable-background:new 0 0 1080 1080;" xml:space="preserve">
<style type="text/css">
	.st0{fill:#FFFFFF;}
</style>
<g>
	<g>
		<path class="st0" d="M538.4,749.4c-2.8,0-5.5-0.6-7.1-1.8c-46.8-37.3-104.1-53.5-180.4-51c-19,0.6-38.2,3.1-52.8,5.3l-16.6,3.6
			l0-17.1c0.1-95,0.1-191.4,0-286.5v-14.2l13.8-1.5c1.4-0.2,22.5-3.7,35.9-5.8c0-3,0-5.9,0-8.8c0.1-8.8,0.1-17.2-0.2-25.6l0-16.1
			l2.2-0.3c0.7-0.1,65.9-8,123.8,15.2c56.8,22.7,66.2,34,82.4,66.1c21.8-38.3,38.2-49.6,94.9-68.2c58.4-19.1,110.7-12.3,111.2-12.2
			l2.1,0.3l0.4,15.5l0,0.1c-0.4,8.2-0.3,16.4-0.2,25c0,3,0.1,6.1,0.1,9.2c3.2,0.5,6.3,1,9.3,1.5c9.3,1.5,18,2.9,26.8,3.8l14.2,2.1
			l-0.2,13.5c-0.1,94.9-0.1,191.3,0,286.4V706l-18-4.5c-57.5-9-105.2-7.4-150.2,5c-31.5,8.8-57.8,21.7-80.3,39.6
			C547.3,748.1,542.6,749.4,538.4,749.4z M366.2,691.3c69.9,0,123.7,16.8,168.2,52.3c1.8,1.4,9.5,0.8,12.3-1.4
			c23-18.4,49.9-31.6,82.1-40.6c45.7-12.7,94.2-14.3,152.4-5.1l0.2,0l11.9,3V688c-0.1-95.1-0.1-191.5,0-286.5l0.1-9.2l-9.8-1.4
			c-8.8-1-17.6-2.4-26.9-3.9c-3.7-0.6-7.5-1.2-11.4-1.8l-2.1-0.3v-2.1c0-3.8,0-7.6-0.1-11.3c-0.1-8.7-0.2-16.9,0.2-25.2l-0.3-11.1
			c-10.2-1-56.2-4.3-106.9,12.3c-57.8,18.9-71.9,29.3-94.4,69.9l-2.3,4.2l-2.1-4.3c-16.9-34-24.4-44.8-81.9-67.9
			c-50.8-20.4-107.4-16.3-119.1-15.1v11.5c0.3,8.4,0.2,16.9,0.2,25.8c0,3.6,0,7.2,0,10.9v2.1l-2.1,0.3c-13.6,2.2-38,6.2-38,6.2
			l-0.1,0l-9.4,1v9.7c0.1,95.1,0.1,191.5,0,286.5l0,10.9l10.7-2.4c14.8-2.2,34.2-4.8,53.4-5.4C356,691.4,361.1,691.3,366.2,691.3z
			 M540.9,731l6.9-9.8c2-2.9,4-6,5.9-8.9c4.3-6.6,8.7-13.4,14.2-19.1c29.3-30.8,68-40.1,98.4-44.7c19.3-2.9,39.9-4.4,61.5-4.6l0.1,0
			l15.3,1.1v-16.5c-0.5-51.8-0.4-104.5-0.3-155.5c0-19.5,0.1-39,0.1-58.4v-22.2l8.6,1.1c11.2,1.5,21,2.8,31.2,4l2.2,0.3V689
			l-2.8-0.4c-46.2-5.9-83.8-6.7-118.5-2.3c-41.5,5.2-78.2,17.8-112.4,38.5L540.9,731z M727.8,648.9c-21.3,0.1-41.7,1.7-60.7,4.5
			c-44,6.7-73.5,20-95.5,43.2c-5.2,5.4-9.3,11.7-13.6,18.4c0,0,0,0,0,0.1c32.1-17.9,66.6-28.9,105-33.8c34.4-4.3,71.6-3.7,117,2
			v-281c-9.4-1.2-18.6-2.4-29-3.8l-2.9-0.4v16.5c0,19.5,0,38.9-0.1,58.4c-0.1,51-0.2,103.7,0.3,155.5v21.9L727.8,648.9z M537,730.6
			l-9.5-5.8c-33.9-20.7-70.5-33.3-111.9-38.4c-34.8-4.4-72.8-3.6-119.6,2.5l-2.8,0.4v-20.8c0-40.7,0-87.2,0-133.8
			c0-46.6,0-93.1,0-133.8v-2.2l43-5.5l0,251.7l20-1l0.1,0c36.3,0.9,74.7,3.3,109.9,20.3c18,8.7,34.5,22.2,49,34.1
			c5,4,8.2,9.9,11.3,15.6c1.4,2.5,2.8,5.1,4.3,7.4L537,730.6z M369.7,678.6c16.4,0,31.8,0.9,46.6,2.8c38.8,4.8,73.5,16.1,105.7,34.3
			c-2.9-5.3-5.7-10.3-9.8-13.6c-15-12.3-30.5-25-48-33.5c-34.3-16.6-72-18.9-107.8-19.8l-25.1,1.3l0-251.3l-33,4.3
			c0,40.1,0,85.9,0,131.6c0,46.6,0,93.1,0,133.8v15.1C324.5,680.3,347.9,678.6,369.7,678.6z M536.6,711.7l-4.5-5.6
			c-47.3-59.1-109.4-66.5-185.6-69.9l-2.4-0.1V342.8l2.6,0.1c56.8,1.2,111.6,5.5,157.5,43.1c21.9,17.7,32.9,41.5,32.6,70.6
			c-0.5,55.7-0.4,112.2-0.3,167c0,20.8,0.1,41.7,0.1,62.5V711.7z M349.1,631.3c34.6,1.6,68.2,3.9,99.4,13.2
			c33.8,10.1,61,27.5,83.1,53.1v-11.5c0-20.8,0-41.7-0.1-62.5c-0.1-54.7-0.2-111.3,0.3-167c0.3-27.5-10.1-50-30.8-66.7
			c-44.1-36.1-97-40.7-151.9-42V631.3z M543.2,711.4v-27.6c0-22.5,0.1-45.3,0.1-67.5c0.2-51.7,0.3-105.1-0.4-157.6
			c-0.5-35.9,14.9-63.4,47.3-84.1c33.5-21.4,91.9-34.1,142-30.9l2.3,0.1V636l-2.4,0.1c-62.7,3-133.7,6.4-184.5,69.7L543.2,711.4z
			 M716.5,348.2c-45.3,0-94.2,11.9-123.6,30.6c-31.2,20-45.5,45.4-45,79.8c0.8,52.5,0.6,106,0.4,157.7c-0.1,22.1-0.1,45-0.1,67.4
			v13.6c22.1-25.5,49.3-42.9,83-52.9c30.7-9.1,62.8-11.4,98.4-13.2V348.6C725.3,348.3,720.9,348.2,716.5,348.2z"/>
	</g>
</g>
</svg>
