<?xml version="1.0" encoding="utf-8"?>
<!-- Generator: Adobe Illustrator 26.5.0, SVG Export Plug-In . SVG Version: 6.00 Build 0)  -->
<svg version="1.1" id="Ebene_1" xmlns="http://www.w3.org/2000/svg" xmlns:xlink="http://www.w3.org/1999/xlink" x="0px" y="0px"
	 viewBox="0 0 1080 1080" style="enable-background:new 0 0 1080 1080;" xml:space="preserve">
<style type="text/css">
	.st0{fill:#FFFFFF;}
</style>
<g>
	<g>
		<path class="st0" d="M386.1,285.1l28.1,28.1l1.5,1.5h2.1h82.4c0.2,0,0.5,0,0.7,0.1c0.2,0,0.5,0.1,0.7,0.2c0.2,0.1,0.5,0.2,0.6,0.3
			c0.2,0.1,0.4,0.3,0.6,0.5c0.2,0.2,0.3,0.4,0.5,0.6c0.1,0.2,0.2,0.4,0.3,0.6c0.1,0.2,0.2,0.5,0.2,0.7l0,0l0,0
			c0,0.2,0.1,0.4,0.1,0.7v34.8v5h5h69.6h5v-5v-34.8c0-0.2,0-0.5,0.1-0.7l0,0l0,0c0-0.2,0.1-0.4,0.2-0.7c0.1-0.2,0.2-0.4,0.3-0.6
			c0.1-0.2,0.3-0.4,0.4-0.5l0,0l0,0c0.2-0.2,0.3-0.3,0.5-0.4c0.2-0.1,0.4-0.2,0.6-0.3c0.2-0.1,0.4-0.2,0.7-0.2
			c0.3-0.1,0.5-0.1,0.7-0.1h83.3h2.1l1.5-1.5l28.1-28.1l33.2,33.2l-31.2,31.3l-2,2l-2-2l-26.1-26.1l-1.5-1.5h-2.1h-74.7h-5v5v26.1v5
			h5h99.7h12.1H787c0.2,0,0.5,0,0.7,0.1c0.3,0.1,0.5,0.1,0.7,0.2c0.2,0.1,0.4,0.2,0.6,0.3c0.2,0.1,0.4,0.3,0.6,0.5
			c0.2,0.2,0.3,0.4,0.5,0.6c0.1,0.2,0.3,0.4,0.3,0.6c0.1,0.3,0.2,0.5,0.2,0.7c0,0.2,0.1,0.5,0.1,0.7v330.4c0,0.2,0,0.5-0.1,0.7
			c-0.1,0.2-0.1,0.5-0.2,0.7c-0.1,0.2-0.2,0.4-0.3,0.6c-0.1,0.2-0.3,0.4-0.5,0.6c-0.2,0.2-0.4,0.3-0.6,0.5c-0.2,0.1-0.4,0.2-0.6,0.3
			c-0.2,0.1-0.4,0.2-0.7,0.2c-0.2,0-0.5,0.1-0.7,0.1H595.7h-5v5v60.9v5h5h90.6v24.8H400.7v-24.8h90.6h5v-5v-60.9v-5h-5l-191.2,0
			c-0.3,0-0.5,0-0.8-0.1c-0.2,0-0.5-0.1-0.7-0.2c-0.2-0.1-0.5-0.2-0.6-0.3c-0.2-0.1-0.4-0.3-0.6-0.5c-0.2-0.2-0.3-0.4-0.4-0.5
			c-0.1-0.2-0.3-0.4-0.4-0.7c-0.1-0.2-0.2-0.4-0.2-0.7c0-0.2-0.1-0.5-0.1-0.7V361.8c0-0.2,0-0.5,0.1-0.7l0,0l0,0
			c0-0.2,0.1-0.4,0.2-0.7c0.1-0.2,0.2-0.4,0.3-0.6c0.1-0.2,0.3-0.4,0.5-0.6c0.2-0.2,0.4-0.3,0.6-0.5c0.2-0.1,0.4-0.3,0.6-0.3
			c0.2-0.1,0.4-0.2,0.7-0.2c0.2,0,0.5-0.1,0.7-0.1h80.4h12.1h98.8h5v-5V327v-5h-5h-73.7h-2.1l-1.5,1.5L388,349.6l-2,2l-2-2
			l-31.3-31.3L386.1,285.1 M604.1,484l-10.6,10.5l-2.6,2.6l1.8,3.3c1.8,3.4,3.3,6.9,4.4,10.6l1.1,3.6h3.7h14.9v3.7v5h5h81h2.1
			l1.5-1.5l28-28l33.2,33.2l-33.2,33.2l-28.2-28.2l-1.5-1.5h-2.1h-80.8h-5v5v3.7h-14.9h-3.8l-1,3.7c-1,3.8-2.5,7.5-4.4,11l-1.7,3.3
			l2.6,2.6l10.6,10.5l-17.2,17.2L576,577l-2.6-2.6l-3.2,1.8c-3.4,1.8-6.9,3.3-10.6,4.4l-3.6,1.1v3.7v14.9h-24.8v-14.5V582l-3.6-1.1
			c-3.7-1.1-7.2-2.5-10.6-4.4l-3.3-1.8l-2.6,2.6L500.5,588l-17.6-17.6l10.7-11l2.6-2.6l-1.8-3.2c-1.8-3.4-3.3-6.9-4.4-10.6l-1.1-3.6
			h-3.7h-14.9v-3.7v-5h-5H384h-2.1l-1.5,1.5l-28.2,28.2l-33.2-33.2l33.2-33.2l28,28l1.5,1.5h2.1h81.5h5v-5v-3.7h14.9h3.7l1.1-3.6
			c1.1-3.7,2.5-7.2,4.4-10.6l1.8-3.3l-2.6-2.6L483,484l11.9-11.9l1.5-1.5v-2.1v-98v-5h-5H308.8h-5v5v278.2v5h5h469.5h5v-5V370.5v-5
			h-5H595.7h-5v5v98v2.1l1.5,1.5L604.1,484 M513.7,479.6l3.3-1.8c3.4-1.8,6.9-3.3,10.6-4.4l3.6-1.1v-3.7v-14.9h24.8v14.9v3.7
			l3.6,1.1c3.7,1.1,7.2,2.5,10.6,4.4l3.3,1.8l2.6-2.6l5.8-5.8l1.5-1.5v-2.1v-97.1v-5h-5h-69.6h-5v5v97.1v2.1l1.5,1.5l5.8,5.8
			L513.7,479.6 M543.5,566.8c1.3,0,2.6-0.1,3.9-0.2c1.3-0.1,2.6-0.3,3.9-0.6c1.3-0.3,2.5-0.6,3.8-1c1.2-0.4,2.4-0.8,3.7-1.3
			c1.2-0.5,2.4-1.1,3.5-1.7c1.1-0.6,2.2-1.3,3.4-2c1.1-0.7,2.1-1.5,3.1-2.3c1-0.8,1.9-1.7,2.9-2.6c0.9-0.9,1.8-1.9,2.6-2.9
			c0.8-1,1.6-2,2.3-3.1c0.7-1.1,1.4-2.2,2-3.4c0.6-1.2,1.2-2.4,1.7-3.5c0.5-1.2,0.9-2.5,1.3-3.7c0.4-1.2,0.7-2.5,1-3.8
			c0.3-1.3,0.4-2.6,0.6-3.9c0.1-1.3,0.2-2.6,0.2-3.9c0-1.3-0.1-2.6-0.2-3.9c-0.1-1.3-0.3-2.6-0.6-3.8c-0.3-1.3-0.6-2.6-0.9-3.8
			c-0.4-1.2-0.8-2.5-1.3-3.7c-0.5-1.2-1-2.4-1.7-3.6c-0.6-1.2-1.3-2.3-2-3.3c-0.7-1.1-1.5-2.1-2.3-3.1c-0.8-1-1.7-2-2.6-2.9
			c-1-1-1.9-1.8-2.9-2.6c-1-0.8-2.1-1.6-3.1-2.3c-1.1-0.7-2.2-1.4-3.3-2c-1.1-0.6-2.3-1.2-3.5-1.7c-1.2-0.5-2.4-0.9-3.7-1.3
			c-1.2-0.4-2.5-0.7-3.8-0.9c-1.3-0.3-2.6-0.4-3.9-0.6c-1.3-0.1-2.6-0.2-3.9-0.2c-1.3,0-2.6,0.1-3.9,0.2c-1.3,0.1-2.6,0.3-3.9,0.6
			c-1.3,0.3-2.5,0.6-3.8,1c-1.3,0.4-2.5,0.8-3.7,1.3c-1.2,0.5-2.4,1.1-3.5,1.7c-1.1,0.6-2.2,1.3-3.4,2c-1.1,0.7-2.1,1.5-3.1,2.3
			c-1,0.8-2,1.7-2.9,2.6c-0.9,0.9-1.8,1.9-2.6,2.9c-0.8,1-1.6,2-2.3,3.1c-0.7,1.1-1.4,2.2-2,3.4c-0.6,1.2-1.2,2.4-1.7,3.5
			c-0.5,1.2-1,2.5-1.3,3.7c-0.4,1.2-0.7,2.5-1,3.8c-0.3,1.3-0.4,2.6-0.6,3.9c-0.1,1.3-0.2,2.6-0.2,3.9c0,1.3,0.1,2.6,0.2,3.9
			c0.1,1.3,0.3,2.6,0.6,3.9c0.3,1.3,0.6,2.6,0.9,3.8c0.4,1.2,0.8,2.5,1.3,3.7c0.5,1.2,1,2.4,1.7,3.6c0.6,1.2,1.3,2.3,2,3.3
			c0.7,1.1,1.5,2.1,2.3,3.1c0.9,1,1.7,2,2.6,2.9c0.9,0.9,1.9,1.8,2.9,2.6c1,0.8,2.1,1.6,3.1,2.3c1.1,0.7,2.2,1.4,3.3,2
			c1.1,0.6,2.3,1.2,3.5,1.7c1.2,0.5,2.4,0.9,3.7,1.3c1.2,0.4,2.5,0.7,3.8,0.9c1.3,0.2,2.6,0.4,3.9,0.6
			C540.9,566.7,542.3,566.8,543.5,566.8 M702,278l-31.6,31.6H587c-0.6,0-1.1,0.1-1.7,0.2c-0.6,0.1-1.1,0.3-1.6,0.5
			c-0.5,0.2-1,0.5-1.5,0.8c-0.5,0.3-0.9,0.7-1.3,1.1c-0.4,0.4-0.8,0.8-1.1,1.3c-0.3,0.5-0.6,1-0.8,1.5c-0.2,0.5-0.4,1.1-0.5,1.6
			c-0.1,0.6-0.2,1.1-0.2,1.7v34.8h-69.6v-34.8c0-0.6-0.1-1.1-0.2-1.7c-0.1-0.6-0.3-1.1-0.5-1.6c-0.2-0.5-0.5-1-0.8-1.5
			c-0.3-0.5-0.7-0.9-1.1-1.3c-0.4-0.4-0.8-0.8-1.3-1.1c-0.5-0.3-1-0.6-1.5-0.8c-0.5-0.2-1.1-0.4-1.6-0.5c-0.6-0.1-1.1-0.2-1.7-0.2
			h-82.4L386.1,278l-40.3,40.3l34.8,34.8h-80.4c-0.6,0-1.1,0.1-1.7,0.2c-0.6,0.1-1.1,0.3-1.6,0.5c-0.5,0.2-1,0.5-1.5,0.8
			c-0.5,0.3-0.9,0.7-1.3,1.1c-0.4,0.4-0.8,0.8-1.1,1.3c-0.3,0.5-0.6,1-0.8,1.5c-0.2,0.5-0.4,1.1-0.5,1.6c-0.1,0.6-0.2,1.1-0.2,1.7
			v330.4c0,0.6,0.1,1.1,0.2,1.7c0.1,0.6,0.3,1.1,0.5,1.6c0.2,0.5,0.5,1,0.8,1.5c0.3,0.5,0.7,0.9,1.1,1.3c0.4,0.4,0.8,0.8,1.3,1.1
			c0.5,0.3,1,0.6,1.5,0.8c0.5,0.2,1.1,0.4,1.6,0.5c0.6,0.1,1.1,0.2,1.7,0.2h191.3v60.9h-95.6v34.8h295.6v-34.8h-95.6v-60.9H787
			c0.6,0,1.1-0.1,1.7-0.2c0.6-0.1,1.1-0.3,1.6-0.5s1-0.5,1.5-0.8c0.5-0.3,0.9-0.7,1.3-1.1c0.4-0.4,0.8-0.8,1.1-1.3
			c0.3-0.5,0.6-1,0.8-1.5c0.2-0.5,0.4-1.1,0.5-1.6c0.1-0.6,0.2-1.1,0.2-1.7V361.8c0-0.6-0.1-1.1-0.2-1.7c-0.1-0.6-0.3-1.1-0.5-1.6
			c-0.2-0.5-0.5-1-0.8-1.5c-0.3-0.5-0.7-0.9-1.1-1.3c-0.4-0.4-0.8-0.8-1.3-1.1c-0.5-0.3-1-0.6-1.5-0.8c-0.5-0.2-1.1-0.4-1.6-0.5
			c-0.6-0.1-1.1-0.2-1.7-0.2h-79.5l34.8-34.8L702,278L702,278z M595.7,353.1V327h74.7l26.1,26.1H595.7L595.7,353.1z M391.6,353.1
			l26.1-26.1h73.7v26.1H391.6L391.6,353.1z M601.9,509.6c-1.2-4-2.8-7.9-4.8-11.6l14.1-14.1l-15.5-15.5v-98h182.6v278.2H308.8V370.5
			h182.6v98L475.9,484l14.1,14.1c-2,3.7-3.6,7.5-4.8,11.6h-19.9v8.7h-81.5l-31.5-31.5L312,527.1l40.3,40.3l31.7-31.7h81.3v8.7h19.9
			c1.2,4,2.8,7.9,4.8,11.6l-14.1,14.5l24.6,24.6l14.1-14.1c3.7,2,7.5,3.6,11.6,4.8v19.5h34.8v-19.9c4-1.2,7.9-2.8,11.6-4.8
			l14.5,14.1l24.2-24.2l-14.1-14.1c2-3.8,3.6-7.8,4.8-12h19.9v-8.7h80.8l31.7,31.7l40.3-40.3l-40.3-40.3l-31.5,31.5h-81v-8.7H601.9
			L601.9,509.6z M514.6,473.5l-5.8-5.8v-97.1h69.6v97.1l-5.8,5.8c-3.7-2-7.5-3.6-11.6-4.8v-19.9h-34.8v19.9
			C522.1,469.9,518.3,471.4,514.6,473.5L514.6,473.5z M543.5,561.8c-1.1,0-2.3-0.1-3.4-0.2c-1.1-0.1-2.3-0.3-3.4-0.5
			c-1.1-0.2-2.2-0.5-3.3-0.8c-1.1-0.3-2.2-0.7-3.2-1.2c-1.1-0.4-2.1-0.9-3.1-1.5c-1-0.5-2-1.1-2.9-1.8c-0.9-0.6-1.9-1.3-2.7-2
			c-0.9-0.7-1.7-1.5-2.5-2.3c-0.8-0.8-1.6-1.6-2.3-2.5s-1.4-1.8-2-2.7c-0.6-0.9-1.2-1.9-1.8-2.9c-0.5-1-1-2-1.5-3.1
			c-0.4-1.1-0.8-2.1-1.2-3.2c-0.3-1.1-0.6-2.2-0.8-3.3c-0.2-1.1-0.4-2.2-0.5-3.4c-0.1-1.1-0.2-2.3-0.2-3.4c0-1.1,0.1-2.3,0.2-3.4
			c0.1-1.1,0.3-2.3,0.5-3.4c0.2-1.1,0.5-2.2,0.8-3.3c0.3-1.1,0.7-2.2,1.2-3.2c0.4-1.1,0.9-2.1,1.5-3.1c0.5-1,1.1-2,1.8-2.9
			c0.6-0.9,1.3-1.9,2-2.7s1.5-1.7,2.3-2.5c0.8-0.8,1.7-1.6,2.5-2.3c0.9-0.7,1.8-1.4,2.7-2c0.9-0.6,1.9-1.2,2.9-1.8
			c1-0.5,2-1,3.1-1.5c1.1-0.4,2.1-0.8,3.2-1.2c1.1-0.3,2.2-0.6,3.3-0.8c1.1-0.2,2.2-0.4,3.4-0.5c1.1-0.1,2.3-0.2,3.4-0.2
			c1.1,0,2.3,0.1,3.4,0.2c1.1,0.1,2.3,0.3,3.4,0.5c1.1,0.2,2.2,0.5,3.3,0.8c1.1,0.3,2.2,0.7,3.2,1.2c1.1,0.4,2.1,0.9,3.1,1.5
			c1,0.5,2,1.1,2.9,1.8c0.9,0.6,1.9,1.3,2.7,2c0.9,0.7,1.7,1.5,2.5,2.3c0.8,0.8,1.6,1.7,2.3,2.5c0.7,0.9,1.4,1.8,2,2.7
			c0.6,0.9,1.2,1.9,1.8,2.9c0.5,1,1,2,1.5,3.1c0.4,1.1,0.8,2.1,1.2,3.2c0.3,1.1,0.6,2.2,0.8,3.3c0.2,1.1,0.4,2.2,0.5,3.4
			c0.1,1.1,0.2,2.3,0.2,3.4c0,1.1-0.1,2.3-0.2,3.4c-0.1,1.1-0.3,2.3-0.5,3.4c-0.2,1.1-0.5,2.2-0.8,3.3c-0.3,1.1-0.7,2.2-1.2,3.2
			c-0.4,1.1-0.9,2.1-1.5,3.1c-0.5,1-1.1,2-1.8,2.9c-0.6,0.9-1.3,1.9-2,2.7c-0.7,0.9-1.5,1.7-2.3,2.5c-0.8,0.8-1.6,1.6-2.5,2.3
			c-0.9,0.7-1.8,1.4-2.7,2c-0.9,0.6-1.9,1.2-2.9,1.8c-1,0.5-2,1-3.1,1.5c-1.1,0.4-2.1,0.8-3.2,1.2c-1.1,0.3-2.2,0.6-3.3,0.8
			c-1.1,0.2-2.2,0.4-3.4,0.5C545.8,561.7,544.7,561.8,543.5,561.8L543.5,561.8z"/>
	</g>
	<g>
		<path class="st0" d="M387,401.6c0.2,0,0.5,0,0.7,0.1l0,0l0,0c0.2,0,0.4,0.1,0.7,0.2c0.2,0.1,0.4,0.2,0.6,0.3
			c0.2,0.1,0.4,0.3,0.6,0.5c0.2,0.2,0.3,0.3,0.5,0.6c0.1,0.2,0.3,0.4,0.3,0.6c0.1,0.2,0.2,0.4,0.2,0.7c0,0.2,0.1,0.5,0.1,0.7v69.6v5
			h5h43.5c0.2,0,0.5,0,0.7,0.1c0.3,0.1,0.5,0.1,0.7,0.2c0.2,0.1,0.4,0.2,0.7,0.4c0.2,0.1,0.4,0.3,0.5,0.4c0.2,0.2,0.3,0.4,0.5,0.6
			c0.1,0.2,0.2,0.4,0.3,0.6c0.1,0.2,0.2,0.4,0.2,0.7l0,0l0,0c0,0.2,0.1,0.4,0.1,0.7c0,0.2,0,0.5-0.1,0.7l0,0l0,0
			c0,0.2-0.1,0.4-0.2,0.7c-0.1,0.2-0.2,0.4-0.3,0.6c-0.1,0.2-0.3,0.4-0.5,0.6c-0.2,0.2-0.4,0.3-0.5,0.4c-0.2,0.1-0.4,0.3-0.7,0.4
			c-0.2,0.1-0.4,0.2-0.7,0.2c-0.2,0-0.5,0.1-0.7,0.1H387c-0.2,0-0.5,0-0.7-0.1c-0.3-0.1-0.5-0.1-0.7-0.2c-0.2-0.1-0.4-0.2-0.7-0.4
			c-0.2-0.1-0.4-0.3-0.5-0.4c-0.2-0.2-0.3-0.4-0.5-0.6c-0.1-0.2-0.2-0.4-0.3-0.6c-0.1-0.2-0.2-0.4-0.2-0.7c0-0.2-0.1-0.5-0.1-0.7
			V414v-5h-5h-43.5c-0.3,0-0.5,0-0.7-0.1c-0.2,0-0.5-0.1-0.7-0.2c-0.2-0.1-0.5-0.2-0.6-0.3c-0.2-0.1-0.4-0.3-0.5-0.4l0,0l0,0
			c-0.2-0.2-0.3-0.3-0.4-0.5c-0.1-0.2-0.2-0.4-0.3-0.6c-0.1-0.2-0.2-0.4-0.2-0.7c0-0.2-0.1-0.4-0.1-0.7s0-0.5,0.1-0.7
			c0-0.2,0.1-0.5,0.2-0.7c0.1-0.2,0.2-0.4,0.3-0.6c0.1-0.2,0.3-0.4,0.4-0.5l0,0l0,0c0.2-0.2,0.3-0.3,0.5-0.4
			c0.2-0.1,0.4-0.3,0.7-0.4c0.2-0.1,0.4-0.2,0.7-0.2c0.2,0,0.4-0.1,0.7-0.1H387 M387,396.6h-52.2c-0.6,0-1.1,0.1-1.7,0.2
			c-0.6,0.1-1.1,0.3-1.6,0.5c-0.5,0.2-1,0.5-1.5,0.8c-0.5,0.3-0.9,0.7-1.3,1.1c-0.4,0.4-0.8,0.8-1.1,1.3c-0.3,0.5-0.6,1-0.8,1.5
			c-0.2,0.5-0.4,1.1-0.5,1.6c-0.1,0.6-0.2,1.1-0.2,1.7c0,0.6,0.1,1.1,0.2,1.7c0.1,0.6,0.3,1.1,0.5,1.6c0.2,0.5,0.5,1,0.8,1.5
			c0.3,0.5,0.7,0.9,1.1,1.3c0.4,0.4,0.8,0.8,1.3,1.1c0.5,0.3,1,0.6,1.5,0.8c0.5,0.2,1.1,0.4,1.6,0.5c0.6,0.1,1.1,0.2,1.7,0.2h43.5
			v69.6c0,0.6,0.1,1.1,0.2,1.7c0.1,0.6,0.3,1.1,0.5,1.6c0.2,0.5,0.5,1,0.8,1.5c0.3,0.5,0.7,0.9,1.1,1.3c0.4,0.4,0.8,0.8,1.3,1.1
			c0.5,0.3,1,0.6,1.5,0.8c0.5,0.2,1.1,0.4,1.6,0.5c0.6,0.1,1.1,0.2,1.7,0.2h52.2c0.6,0,1.1-0.1,1.7-0.2c0.6-0.1,1.1-0.3,1.6-0.5
			s1-0.5,1.5-0.8c0.5-0.3,0.9-0.7,1.3-1.1c0.4-0.4,0.8-0.8,1.1-1.3c0.3-0.5,0.6-1,0.8-1.5c0.2-0.5,0.4-1.1,0.5-1.6
			c0.1-0.6,0.2-1.1,0.2-1.7c0-0.6-0.1-1.1-0.2-1.7c-0.1-0.6-0.3-1.1-0.5-1.6c-0.2-0.5-0.5-1-0.8-1.5c-0.3-0.5-0.7-0.9-1.1-1.3
			c-0.4-0.4-0.8-0.8-1.3-1.1c-0.5-0.3-1-0.6-1.5-0.8s-1.1-0.4-1.6-0.5c-0.6-0.1-1.1-0.2-1.7-0.2h-43.5v-69.6c0-0.6-0.1-1.1-0.2-1.7
			c-0.1-0.6-0.3-1.1-0.5-1.6c-0.2-0.5-0.5-1-0.8-1.5c-0.3-0.5-0.7-0.9-1.1-1.3c-0.4-0.4-0.8-0.8-1.3-1.1c-0.5-0.3-1-0.6-1.5-0.8
			c-0.5-0.2-1.1-0.4-1.6-0.5C388.2,396.7,387.6,396.6,387,396.6L387,396.6z"/>
	</g>
	<g>
		<path class="st0" d="M743.5,401.6c0.3,0,0.5,0,0.7,0.1c0.2,0,0.5,0.1,0.7,0.2c0.2,0.1,0.4,0.2,0.6,0.3c0.2,0.1,0.4,0.3,0.5,0.4
			l0,0l0,0c0.2,0.2,0.3,0.3,0.4,0.5c0.1,0.2,0.2,0.4,0.3,0.6c0.1,0.2,0.2,0.4,0.2,0.7c0,0.2,0.1,0.4,0.1,0.7s0,0.5-0.1,0.7
			c0,0.2-0.1,0.5-0.2,0.7c-0.1,0.2-0.2,0.4-0.4,0.7c-0.1,0.2-0.3,0.4-0.4,0.5l0,0l0,0c-0.2,0.2-0.3,0.3-0.5,0.4
			c-0.2,0.1-0.4,0.2-0.6,0.3c-0.2,0.1-0.5,0.2-0.7,0.2c-0.2,0-0.4,0.1-0.7,0.1H700h-5v5v69.6c0,0.2,0,0.5-0.1,0.7l0,0l0,0
			c0,0.2-0.1,0.4-0.2,0.7l0,0l0,0c-0.1,0.2-0.2,0.4-0.3,0.6c-0.1,0.2-0.3,0.4-0.5,0.6c-0.2,0.2-0.4,0.3-0.6,0.5
			c-0.2,0.1-0.4,0.3-0.6,0.3c-0.2,0.1-0.4,0.2-0.7,0.2c-0.2,0-0.5,0.1-0.7,0.1h-52.2c-0.2,0-0.5,0-0.7-0.1c-0.3-0.1-0.5-0.1-0.7-0.2
			c-0.2-0.1-0.4-0.2-0.7-0.4c-0.2-0.1-0.4-0.3-0.5-0.4c-0.2-0.2-0.3-0.4-0.5-0.6c-0.1-0.2-0.2-0.4-0.3-0.6c-0.1-0.2-0.2-0.4-0.2-0.7
			c0-0.2-0.1-0.5-0.1-0.7c0-0.2,0-0.5,0.1-0.7c0.1-0.3,0.1-0.5,0.2-0.7c0.1-0.2,0.2-0.4,0.3-0.6c0.1-0.2,0.3-0.4,0.5-0.6
			c0.2-0.2,0.4-0.3,0.6-0.5c0.2-0.1,0.4-0.3,0.6-0.3c0.2-0.1,0.4-0.2,0.7-0.2c0.2,0,0.5-0.1,0.7-0.1h43.5h5v-5v-69.6
			c0-0.2,0-0.5,0.1-0.7c0-0.2,0.1-0.5,0.2-0.7c0.1-0.2,0.2-0.4,0.3-0.6c0.1-0.2,0.3-0.4,0.4-0.5l0,0l0,0c0.2-0.2,0.3-0.3,0.5-0.4
			c0.2-0.1,0.4-0.2,0.6-0.3c0.2-0.1,0.5-0.2,0.7-0.2l0,0l0,0c0.2,0,0.4-0.1,0.7-0.1H743.5 M743.5,396.6h-52.2
			c-0.6,0-1.1,0.1-1.7,0.2c-0.6,0.1-1.1,0.3-1.6,0.5c-0.5,0.2-1,0.5-1.5,0.8c-0.5,0.3-0.9,0.7-1.3,1.1c-0.4,0.4-0.8,0.8-1.1,1.3
			c-0.3,0.5-0.6,1-0.8,1.5c-0.2,0.5-0.4,1.1-0.5,1.6c-0.1,0.6-0.2,1.1-0.2,1.7v69.6h-43.5c-0.6,0-1.1,0.1-1.7,0.2
			c-0.6,0.1-1.1,0.3-1.6,0.5s-1,0.5-1.5,0.8c-0.5,0.3-0.9,0.7-1.3,1.1c-0.4,0.4-0.8,0.8-1.1,1.3c-0.3,0.5-0.6,1-0.8,1.5
			c-0.2,0.5-0.4,1.1-0.5,1.6c-0.1,0.6-0.2,1.1-0.2,1.7c0,0.6,0.1,1.1,0.2,1.7c0.1,0.6,0.3,1.1,0.5,1.6c0.2,0.5,0.5,1,0.8,1.5
			c0.3,0.5,0.7,0.9,1.1,1.3c0.4,0.4,0.8,0.8,1.3,1.1c0.5,0.3,1,0.6,1.5,0.8s1.1,0.4,1.6,0.5c0.6,0.1,1.1,0.2,1.7,0.2h52.2
			c0.6,0,1.1-0.1,1.7-0.2c0.6-0.1,1.1-0.3,1.6-0.5c0.5-0.2,1-0.5,1.5-0.8c0.5-0.3,0.9-0.7,1.3-1.1c0.4-0.4,0.8-0.8,1.1-1.3
			c0.3-0.5,0.6-1,0.8-1.5c0.2-0.5,0.4-1.1,0.5-1.6c0.1-0.6,0.2-1.1,0.2-1.7V414h43.5c0.6,0,1.1-0.1,1.7-0.2c0.6-0.1,1.1-0.3,1.6-0.5
			c0.5-0.2,1-0.5,1.5-0.8c0.5-0.3,0.9-0.7,1.3-1.1c0.4-0.4,0.8-0.8,1.1-1.3c0.3-0.5,0.6-1,0.8-1.5c0.2-0.5,0.4-1.1,0.5-1.6
			c0.1-0.6,0.2-1.1,0.2-1.7c0-0.6-0.1-1.1-0.2-1.7c-0.1-0.6-0.3-1.1-0.5-1.6c-0.2-0.5-0.5-1-0.8-1.5c-0.3-0.5-0.7-0.9-1.1-1.3
			c-0.4-0.4-0.8-0.8-1.3-1.1s-1-0.6-1.5-0.8c-0.5-0.2-1.1-0.4-1.6-0.5C744.6,396.7,744.1,396.6,743.5,396.6L743.5,396.6z"/>
	</g>
</g>
</svg>
